<svg width="36" height="36" viewBox="0 0 36 36" fill="none" xmlns="http://www.w3.org/2000/svg">
<circle cx="18" cy="18" r="18" fill="#B2C535"/>
<path d="M14.2 18.4L17.5 26.1L20.8 18.4M17.5 12.6403C16.9162 12.1177 16.1452 11.8 15.3 11.8C13.4775 11.8 12 13.2775 12 15.1C12 16.9225 13.4775 18.4 15.3 18.4C16.1452 18.4 16.9162 18.0823 17.5 17.5597M14.2 11.8C14.2 9.97746 15.6775 8.5 17.5 8.5C19.3225 8.5 20.8 9.97746 20.8 11.8M23 15.1C23 16.9225 21.5225 18.4 19.7 18.4C17.8775 18.4 16.4 16.9225 16.4 15.1C16.4 13.2775 17.8775 11.8 19.7 11.8C21.5225 11.8 23 13.2775 23 15.1Z" stroke="white" stroke-width="1.2"/>
</svg>
