<svg width="36" height="37" viewBox="0 0 36 37" fill="none" xmlns="http://www.w3.org/2000/svg">
<circle cx="18" cy="19" r="18" fill="#F8C747"/>
<path d="M9.25 23.4163V11.333V23.4163ZM9.25 23.4163C9.25 23.4163 9.25 25.9163 8 25.9163L9.25 23.4163ZM9.25 23.4163H26.75H9.25ZM26.75 23.4163C26.75 23.4163 26.75 25.9163 28 25.9163L26.75 23.4163ZM26.75 23.4163V18.833C26.75 18.0595 26.4427 17.3176 25.8957 16.7706C25.3487 16.2236 24.6069 15.9163 23.8333 15.9163H16.75V19.2497M9.25 20.9163H26.75H9.25ZM15.0833 17.4997C15.0833 17.4997 14.25 18.833 13.2083 18.833C12.8216 18.833 12.4506 18.6794 12.1771 18.4059C11.9036 18.1324 11.75 17.7614 11.75 17.3747C11.75 16.5697 12.4033 15.9197 13.2083 15.9197C14.25 15.9197 15.0833 17.2497 15.0833 17.2497V17.4997Z" fill="white"/>
<path d="M9.25 23.4163V11.333M9.25 23.4163C9.25 23.4163 9.25 25.9163 8 25.9163M9.25 23.4163H26.75M26.75 23.4163C26.75 23.4163 26.75 25.9163 28 25.9163M26.75 23.4163V18.833C26.75 18.0595 26.4427 17.3176 25.8957 16.7706C25.3487 16.2236 24.6069 15.9163 23.8333 15.9163H16.75V19.2497M9.25 20.9163H26.75M15.0833 17.4997C15.0833 17.4997 14.25 18.833 13.2083 18.833C12.8216 18.833 12.4506 18.6794 12.1771 18.4059C11.9036 18.1324 11.75 17.7614 11.75 17.3747C11.75 16.5697 12.4033 15.9197 13.2083 15.9197C14.25 15.9197 15.0833 17.2497 15.0833 17.2497V17.4997Z" stroke="white"/>
</svg>
