<svg width="18" height="18" viewBox="0 0 18 18" fill="none" xmlns="http://www.w3.org/2000/svg">
<path d="M0.546875 17.9378H17.4469C17.5795 17.9378 17.7067 17.8851 17.8004 17.7913C17.8942 17.6976 17.9469 17.5704 17.9469 17.4378C17.9469 17.3052 17.8942 17.178 17.8004 17.0842C17.7067 16.9905 17.5795 16.9378 17.4469 16.9378H0.546875C0.414267 16.9378 0.28709 16.9905 0.193321 17.0842C0.0995533 17.178 0.046875 17.3052 0.046875 17.4378C0.046875 17.5704 0.0995533 17.6976 0.193321 17.7913C0.28709 17.8851 0.414267 17.9378 0.546875 17.9378ZM6.70887 14.1798C7.13128 14.0616 7.51668 13.8379 7.82887 13.5298L17.3689 3.98978C17.6956 3.66179 17.879 3.21771 17.879 2.75478C17.879 2.29184 17.6956 1.84777 17.3689 1.51978L16.4289 0.589777C16.0962 0.272032 15.6539 0.0947266 15.1939 0.0947266C14.7339 0.0947266 14.2915 0.272032 13.9589 0.589777L4.41887 10.1198C4.11021 10.4299 3.88937 10.8164 3.77888 11.2398L3.03887 13.9998C3.00377 14.1259 3.00286 14.259 3.03625 14.3855C3.06965 14.5121 3.13613 14.6274 3.22887 14.7198C3.37042 14.8589 3.5604 14.9378 3.75888 14.9398L6.70887 14.1798ZM7.11887 12.8198C6.93452 13.0075 6.70312 13.1422 6.44887 13.2098L5.47887 13.4698L4.47888 12.4698L4.73887 11.4998C4.80882 11.2465 4.94319 11.0157 5.12887 10.8298L5.50887 10.4598L7.49887 12.4498L7.11887 12.8198ZM8.20887 11.7398L6.21887 9.74978L12.9489 3.01978L14.9389 5.00978L8.20887 11.7398ZM16.6589 3.28978L15.6489 4.29978L13.6589 2.30978L14.6689 1.28978C14.7384 1.21999 14.821 1.16462 14.9119 1.12684C15.0029 1.08906 15.1004 1.06961 15.1989 1.06961C15.2974 1.06961 15.3949 1.08906 15.4858 1.12684C15.5768 1.16462 15.6594 1.21999 15.7289 1.28978L16.6589 2.22978C16.7984 2.37091 16.8766 2.56135 16.8766 2.75978C16.8766 2.95821 16.7984 3.14864 16.6589 3.28978Z" fill="#454545"/>
</svg>
