<svg width="36" height="36" viewBox="0 0 36 36" fill="none" xmlns="http://www.w3.org/2000/svg">
<circle cx="18" cy="18" r="18" fill="#29A3D2"/>
<g clip-path="url(#clip0_2734_1547)">
<path d="M28.3001 21.6379C28.4799 21.4315 28.5927 21.1753 28.6235 20.9034C28.6543 20.6314 28.6018 20.3565 28.4728 20.1151L26.9256 17.1563C26.7592 16.8393 26.5267 16.5618 26.2439 16.3425C25.961 16.1232 25.6343 15.9672 25.2859 15.885L13.7109 13.015L12.0604 10.8752C11.9269 10.704 11.7427 10.5792 11.5342 10.5185C11.3257 10.4578 11.1033 10.4644 10.8987 10.5373C10.6941 10.6102 10.5177 10.7458 10.3945 10.9246C10.2714 11.1035 10.2077 11.3167 10.2125 11.5338L10.3255 15.0651C10.2291 15.5811 10.4315 15.7014 16.28 17.9955L12.6031 21.7552C12.4993 21.8535 12.4255 21.9793 12.3903 22.118C12.3552 22.2566 12.3601 22.4023 12.4045 22.5383C12.4369 22.6357 12.488 22.7259 12.5547 22.8038C12.6924 22.958 12.8812 23.0572 13.0863 23.083L14.8676 23.3216C15.0464 23.3442 15.2277 23.3089 15.3851 23.221L21.2315 19.9035C23.3576 20.7086 25.3647 21.4757 26.8083 22.0121C27.0655 22.109 27.3462 22.1251 27.6127 22.0582C27.8793 21.9913 28.1191 21.8447 28.3001 21.6379ZM27.1953 20.9694C25.6982 20.4126 23.6015 19.6337 21.382 18.7691L21.1378 18.6768L14.9136 22.2097L13.8184 22.0626L18.2346 17.5592L17.4703 17.236C13.2075 15.613 11.8604 15.0101 11.4143 14.7897L11.33 11.742L13.0505 13.9825L25.0364 16.9791C25.2275 17.024 25.4069 17.1087 25.563 17.2277C25.7191 17.3467 25.8483 17.4973 25.9421 17.6696L27.495 20.6092C27.5202 20.6534 27.5307 20.7045 27.5248 20.7551C27.519 20.8056 27.4971 20.853 27.4625 20.8903C27.4324 20.9305 27.3901 20.9599 27.342 20.9741C27.2939 20.9884 27.2424 20.9867 27.1953 20.9694Z" fill="white"/>
<path d="M16.1611 10.9584L17.0068 12.8306L18.0989 13.1036L17.1642 10.987L18.2751 11.3602L20.2965 13.631L21.8286 14.0135L18.9518 10.7924C18.8699 10.6835 18.7578 10.601 18.6294 10.5552L17.0391 9.98234C16.9067 9.9358 16.7634 9.92952 16.6274 9.96428C16.4913 9.99904 16.3686 10.0733 16.2747 10.1777C16.1808 10.2821 16.1199 10.4119 16.0997 10.5508C16.0795 10.6898 16.1009 10.8316 16.1611 10.9584Z" fill="white"/>
</g>
<defs>
<clipPath id="clip0_2734_1547">
<rect width="20" height="20" fill="white" transform="translate(19 3.50098) rotate(50)"/>
</clipPath>
</defs>
</svg>
