<svg width="20" height="20" viewBox="0 0 20 21" fill="none" xmlns="http://www.w3.org/2000/svg">
<path d="M8.19844 3.7998H11.7984C11.7984 3.32241 11.6088 2.86458 11.2712 2.52701C10.9337 2.18945 10.4758 1.9998 9.99844 1.9998C9.52105 1.9998 9.06321 2.18945 8.72564 2.52701C8.38808 2.86458 8.19844 3.32241 8.19844 3.7998ZM6.99844 3.7998C6.99844 3.00416 7.31451 2.24109 7.87712 1.67848C8.43973 1.11588 9.20279 0.799805 9.99844 0.799805C10.7941 0.799805 11.5571 1.11588 12.1198 1.67848C12.6824 2.24109 12.9984 3.00416 12.9984 3.7998H18.9984C19.1576 3.7998 19.3102 3.86302 19.4227 3.97554C19.5352 4.08806 19.5984 4.24067 19.5984 4.3998C19.5984 4.55893 19.5352 4.71155 19.4227 4.82407C19.3102 4.93659 19.1576 4.9998 18.9984 4.9998H17.7336L16.3008 17.4126C16.1996 18.29 15.7792 19.0996 15.1199 19.6873C14.4605 20.275 13.6081 20.5997 12.7248 20.5998H7.27204C6.38878 20.5997 5.53637 20.275 4.877 19.6873C4.21763 19.0996 3.79732 18.29 3.69604 17.4126L2.26324 4.9998H0.998437C0.839308 4.9998 0.686695 4.93659 0.574174 4.82407C0.461652 4.71155 0.398438 4.55893 0.398438 4.3998C0.398438 4.24067 0.461652 4.08806 0.574174 3.97554C0.686695 3.86302 0.839308 3.7998 0.998437 3.7998H6.99844ZM4.88764 17.2758C4.95535 17.8607 5.23569 18.4003 5.67534 18.7919C6.11498 19.1835 6.68325 19.3999 7.27204 19.3998H12.7248C13.3136 19.3999 13.8819 19.1835 14.3215 18.7919C14.7612 18.4003 15.0415 17.8607 15.1092 17.2758L16.5252 4.9998H3.47164L4.88764 17.2758ZM8.19844 7.9998C8.35757 7.9998 8.51018 8.06302 8.6227 8.17554C8.73522 8.28806 8.79844 8.44067 8.79844 8.5998V15.7998C8.79844 15.9589 8.73522 16.1115 8.6227 16.2241C8.51018 16.3366 8.35757 16.3998 8.19844 16.3998C8.03931 16.3998 7.88669 16.3366 7.77417 16.2241C7.66165 16.1115 7.59844 15.9589 7.59844 15.7998V8.5998C7.59844 8.44067 7.66165 8.28806 7.77417 8.17554C7.88669 8.06302 8.03931 7.9998 8.19844 7.9998ZM12.3984 8.5998C12.3984 8.44067 12.3352 8.28806 12.2227 8.17554C12.1102 8.06302 11.9576 7.9998 11.7984 7.9998C11.6393 7.9998 11.4867 8.06302 11.3742 8.17554C11.2617 8.28806 11.1984 8.44067 11.1984 8.5998V15.7998C11.1984 15.9589 11.2617 16.1115 11.3742 16.2241C11.4867 16.3366 11.6393 16.3998 11.7984 16.3998C11.9576 16.3998 12.1102 16.3366 12.2227 16.2241C12.3352 16.1115 12.3984 15.9589 12.3984 15.7998V8.5998Z" fill="#454545"/>
</svg>
