<svg width="24" height="25" viewBox="0 0 24 25" fill="none" xmlns="http://www.w3.org/2000/svg">
<g clip-path="url(#clip0_769_2269)">
<path d="M23.8469 5.93997C23.7959 5.61552 23.6474 5.31426 23.4211 5.07614C23.1949 4.83801 22.9017 4.67427 22.5803 4.60663L18.6669 3.74663C18.2473 3.65511 17.8129 3.65477 17.3931 3.74563C16.9733 3.83649 16.5779 4.01644 16.2336 4.2733L4.66694 12.7L1.42694 12.5666C1.16648 12.5573 0.909707 12.6303 0.693088 12.7752C0.47647 12.9201 0.311019 13.1296 0.220236 13.3739C0.129454 13.6182 0.117955 13.8849 0.187372 14.1361C0.25679 14.3873 0.403595 14.6103 0.606936 14.7733L3.94027 17.3933C4.34027 17.88 4.60694 17.7866 11.2269 14.18L11.8469 20.46C11.8573 20.6313 11.916 20.7961 12.0163 20.9354C12.1166 21.0747 12.2544 21.1826 12.4136 21.2466C12.5282 21.2919 12.6504 21.3145 12.7736 21.3133C13.0215 21.3057 13.2584 21.2086 13.4403 21.04L15.0336 19.5866C15.1923 19.4396 15.2997 19.2457 15.3403 19.0333L16.8003 11.1C19.1803 9.76663 21.4336 8.5133 23.0403 7.59997C23.3277 7.43828 23.559 7.19271 23.7031 6.89607C23.8473 6.59944 23.8974 6.26588 23.8469 5.93997ZM22.3803 6.43997C20.7136 7.38663 18.3803 8.7133 15.8736 10.0866L15.6003 10.24L14.0469 18.6866L13.0669 19.58L12.3336 12.0466L11.4469 12.5C6.66694 15.1666 5.0736 15.94 4.52694 16.18L1.66027 13.9066L5.04694 14.0533L17.0469 5.34663C17.2356 5.20562 17.4518 5.106 17.6816 5.05431C17.9113 5.00261 18.1494 5 18.3803 5.04663L22.2803 5.88663C22.3404 5.89753 22.3954 5.92733 22.4374 5.97171C22.4794 6.01608 22.5061 6.07269 22.5136 6.1333C22.5273 6.19196 22.5218 6.25348 22.4977 6.30872C22.4737 6.36397 22.4325 6.41 22.3803 6.43997Z" fill="#8A8A8A"/>
<path d="M4.66575 8.86017L7.03908 9.52684L8.13242 8.7335L5.46575 7.96017L6.66575 7.22684L10.3124 7.12017L11.8458 6.00684L6.66575 6.16684C6.50244 6.158 6.34015 6.19742 6.19908 6.28017L4.44575 7.30017C4.3008 7.38604 4.1845 7.5129 4.11153 7.66476C4.03856 7.81662 4.01218 7.98668 4.03571 8.15351C4.05923 8.32034 4.13162 8.47647 4.24374 8.60223C4.35586 8.72798 4.5027 8.81773 4.66575 8.86017Z" fill="#8A8A8A"/>
</g>
<defs>
<clipPath id="clip0_769_2269">
<rect width="24" height="24" fill="white" transform="translate(0 0.5)"/>
</clipPath>
</defs>
</svg>
