<svg width="29" height="29" viewBox="0 0 29 29" fill="none" xmlns="http://www.w3.org/2000/svg">
<g clip-path="url(#clip0_1047_1573)">
<path d="M24.8138 18.2951C24.9936 18.0887 25.1063 17.8325 25.1372 17.5606C25.168 17.2886 25.1154 17.0137 24.9865 16.7723L23.4393 13.8135C23.2729 13.4966 23.0404 13.2191 22.7575 12.9997C22.4747 12.7804 22.148 12.6244 21.7996 12.5422L10.2245 9.6722L8.57411 7.53246C8.44055 7.3612 8.25642 7.23638 8.04787 7.17572C7.83933 7.11506 7.61698 7.12166 7.41239 7.19457C7.20781 7.26747 7.0314 7.40299 6.90822 7.58187C6.78504 7.76074 6.72135 7.97388 6.7262 8.19101L6.83919 11.7223C6.74278 12.2384 6.94521 12.3586 12.7936 14.6527L9.11678 18.4124C9.01294 18.5107 8.93916 18.6365 8.90399 18.7752C8.86883 18.9138 8.87373 19.0596 8.91813 19.1955C8.9506 19.2929 9.00164 19.3831 9.06841 19.461C9.20607 19.6153 9.3949 19.7144 9.6 19.7402L11.3812 19.9789C11.5601 20.0014 11.7414 19.9661 11.8987 19.8782L17.7452 16.5607C19.8712 17.3658 21.8783 18.1329 23.322 18.6693C23.5792 18.7662 23.8598 18.7823 24.1264 18.7154C24.393 18.6486 24.6328 18.5019 24.8138 18.2951ZM23.709 17.6267C22.2119 17.0698 20.1151 16.2909 17.8957 15.4264L17.6514 15.334L11.4273 18.8669L10.332 18.7198L14.7483 14.2164L13.9839 13.8932C9.72119 12.2702 8.37404 11.6673 7.928 11.4469L7.84368 8.3992L9.56414 10.6397L21.5501 13.6364C21.7412 13.6812 21.9206 13.7659 22.0767 13.8849C22.2327 14.0039 22.3619 14.1545 22.4558 14.3268L24.0086 17.2664C24.0339 17.3106 24.0443 17.3617 24.0385 17.4123C24.0327 17.4629 24.0108 17.5102 23.9762 17.5475C23.9461 17.5877 23.9038 17.6171 23.8557 17.6314C23.8076 17.6456 23.7561 17.644 23.709 17.6267Z" fill="#000000"/>
<path d="M12.6767 7.61563L13.5224 9.4878L14.6145 9.7608L13.6798 7.64424L14.7907 8.01747L16.8122 10.2883L18.3442 10.6707L15.4674 7.44967C15.3856 7.34069 15.2735 7.2582 15.1451 7.21247L13.5547 6.63957C13.4223 6.59303 13.279 6.58675 13.143 6.62151C13.0069 6.65627 12.8843 6.73052 12.7904 6.8349C12.6965 6.93929 12.6356 7.06913 12.6153 7.20807C12.5951 7.347 12.6165 7.48882 12.6767 7.61563Z" fill="#000000"/>
</g>
<defs>
<clipPath id="clip0_1047_1573">
<rect width="20" height="20" fill="white" transform="translate(15.5137 0.158203) rotate(50)"/>
</clipPath>
</defs>
</svg>
