<svg width="24" height="25" viewBox="0 0 24 25" fill="none" xmlns="http://www.w3.org/2000/svg">
<g clip-path="url(#clip0_769_2274)">
<path d="M18.56 24.3469C18.8845 24.2959 19.1857 24.1474 19.4239 23.9211C19.662 23.6949 19.8257 23.4017 19.8934 23.0803L20.7534 19.1669C20.8449 18.7473 20.8452 18.3129 20.7544 17.8931C20.6635 17.4733 20.4836 17.0779 20.2267 16.7336L11.8 5.16694L11.9334 1.92694C11.9427 1.66648 11.8697 1.40971 11.7248 1.19309C11.5799 0.97647 11.3704 0.811019 11.1261 0.720236C10.8818 0.629454 10.6151 0.617955 10.3639 0.687372C10.1127 0.75679 9.88972 0.903595 9.7267 1.10694L7.1067 4.44027C6.62003 4.84027 6.71337 5.10694 10.32 11.7269L4.04003 12.3469C3.86872 12.3573 3.70385 12.416 3.5646 12.5163C3.42534 12.6166 3.31741 12.7544 3.25337 12.9136C3.20809 13.0282 3.18546 13.1504 3.1867 13.2736C3.19428 13.5215 3.29137 13.7584 3.46003 13.9403L4.91337 15.5336C5.06036 15.6923 5.25426 15.7997 5.4667 15.8403L13.4 17.3003C14.7334 19.6803 15.9867 21.9336 16.9 23.5403C17.0617 23.8277 17.3073 24.059 17.6039 24.2031C17.9006 24.3473 18.2341 24.3974 18.56 24.3469ZM18.06 22.8803C17.1134 21.2136 15.7867 18.8803 14.4134 16.3736L14.26 16.1003L5.81337 14.5469L4.92003 13.5669L12.4534 12.8336L12 11.9469C9.33337 7.16694 8.56003 5.5736 8.32003 5.02694L10.5934 2.16027L10.4467 5.54694L19.1534 17.5469C19.2944 17.7356 19.394 17.9518 19.4457 18.1816C19.4974 18.4113 19.5 18.6494 19.4534 18.8803L18.6134 22.7803C18.6025 22.8404 18.5727 22.8954 18.5283 22.9374C18.4839 22.9794 18.4273 23.0061 18.3667 23.0136C18.308 23.0273 18.2465 23.0218 18.1913 22.9977C18.136 22.9737 18.09 22.9325 18.06 22.8803Z" fill="#8A8A8A"/>
<path d="M15.6408 5.16673L14.9741 7.54006L15.7675 8.63339L16.5408 5.96673L17.2741 7.16673L17.3808 10.8134L18.4941 12.3467L18.3341 7.16673C18.343 7.00342 18.3036 6.84112 18.2208 6.70006L17.2008 4.94673C17.1149 4.80177 16.9881 4.68548 16.8362 4.61251C16.6844 4.53954 16.5143 4.51315 16.3475 4.53668C16.1806 4.56021 16.0245 4.6326 15.8987 4.74472C15.773 4.85684 15.6832 5.00368 15.6408 5.16673Z" fill="#8A8A8A"/>
</g>
<defs>
<clipPath id="clip0_769_2274">
<rect width="24" height="24" fill="white" transform="matrix(0 1 -1 0 24 0.5)"/>
</clipPath>
</defs>
</svg>
