<svg width="26" height="25" viewBox="0 0 26 25" fill="none" xmlns="http://www.w3.org/2000/svg">
<g clip-path="url(#clip0_1047_1567)">
<path d="M24.2332 9.52146C24.2621 9.24929 24.2076 8.97476 24.0768 8.7343C23.9461 8.49383 23.7454 8.29878 23.5012 8.17502L20.5367 6.63873C20.2187 6.47455 19.8691 6.38057 19.5116 6.36317C19.154 6.34576 18.797 6.40533 18.4645 6.53784L7.33652 10.8261L4.75727 10.0199C4.54963 9.95624 4.32721 9.9596 4.12159 10.0295C3.91596 10.0995 3.7376 10.2324 3.61184 10.4095C3.48607 10.5865 3.4193 10.7987 3.42099 11.0159C3.42269 11.2331 3.49277 11.4442 3.62128 11.6193L5.73932 14.4472C5.95633 14.9252 6.19111 14.9076 12.2977 13.4322L11.4423 18.621C11.4136 18.7611 11.4253 18.9065 11.4761 19.0402C11.5268 19.1739 11.6144 19.2905 11.7287 19.3764C11.8112 19.4376 11.9047 19.4822 12.0041 19.5077C12.2054 19.5551 12.4169 19.528 12.5997 19.4315L14.1957 18.6053C14.3551 18.5212 14.4834 18.3883 14.5619 18.226L17.4482 12.1551C19.6515 11.5952 21.7356 11.0723 23.2259 10.6837C23.4921 10.6155 23.7313 10.4677 23.9113 10.2601C24.0913 10.0524 24.2036 9.7947 24.2332 9.52146ZM22.9448 9.6076C21.3991 10.0101 19.2348 10.5748 16.9208 11.1396L16.6678 11.204L13.5956 17.6681L12.6141 18.1758L13.6486 11.9537L12.8371 12.1274C8.41438 13.2429 6.96505 13.5218 6.47325 13.597L4.65608 11.1489L7.3505 11.9974L18.8876 7.57723C19.0699 7.5044 19.2654 7.47086 19.4615 7.4788C19.6576 7.48675 19.8498 7.53599 20.0256 7.62332L22.9837 9.14063C23.0297 9.16236 23.0676 9.19823 23.0918 9.243C23.116 9.28776 23.1253 9.3391 23.1183 9.38951C23.1167 9.43969 23.0989 9.488 23.0677 9.52729C23.0364 9.56658 22.9934 9.59474 22.9448 9.6076Z" fill="#000000"/>
<path d="M8.16409 7.73523L9.93069 8.78374L10.9819 8.38097L9.00215 7.18333L10.1262 6.85186L13.0846 7.55253L14.559 6.98708L10.3549 5.99863C10.2253 5.9563 10.0862 5.95302 9.95479 5.9892L8.32347 6.43208C8.18827 6.46993 8.0673 6.54697 7.97581 6.65346C7.88432 6.75996 7.8264 6.89116 7.80936 7.03052C7.79231 7.16989 7.8169 7.31118 7.88003 7.43658C7.94316 7.56199 8.042 7.66591 8.16409 7.73523Z" fill="#000000"/>
</g>
<defs>
<clipPath id="clip0_1047_1567">
<rect width="20" height="20" fill="white" transform="translate(6.21094) rotate(15)"/>
</clipPath>
</defs>
</svg>
