<svg width="20" height="20" viewBox="0 0 20 20" fill="none" xmlns="http://www.w3.org/2000/svg">
<path d="M8.97134 4.15373C9.00039 4.18275 9.02344 4.21722 9.03917 4.25516C9.0549 4.29309 9.06299 4.33376 9.06299 4.37483C9.06299 4.41589 9.0549 4.45656 9.03917 4.4945C9.02344 4.53243 9.00039 4.5669 8.97134 4.59592L3.87993 9.68733L16.8752 9.68733C16.9581 9.68733 17.0376 9.72025 17.0962 9.77885C17.1548 9.83746 17.1877 9.91695 17.1877 9.99983C17.1877 10.0827 17.1548 10.1622 17.0962 10.2208C17.0376 10.2794 16.9581 10.3123 16.8752 10.3123L3.87993 10.3123L8.97134 15.4037C9.00037 15.4328 9.02341 15.4672 9.03912 15.5052C9.05483 15.5431 9.06292 15.5838 9.06292 15.6248C9.06292 15.6659 9.05483 15.7065 9.03912 15.7445C9.02341 15.7824 9.00037 15.8169 8.97134 15.8459C8.94231 15.875 8.90784 15.898 8.8699 15.9137C8.83197 15.9294 8.79131 15.9375 8.75025 15.9375C8.70919 15.9375 8.66853 15.9294 8.63059 15.9137C8.59266 15.898 8.55819 15.875 8.52915 15.8459L2.90415 10.2209C2.8751 10.1919 2.85205 10.1574 2.83632 10.1195C2.82059 10.0816 2.8125 10.0409 2.8125 9.99983C2.8125 9.95876 2.82059 9.91809 2.83632 9.88016C2.85205 9.84222 2.8751 9.80775 2.90415 9.77873L8.52915 4.15373C8.55817 4.12468 8.59264 4.10163 8.63058 4.0859C8.66851 4.07018 8.70918 4.06208 8.75025 4.06208C8.79131 4.06208 8.83198 4.07018 8.86992 4.0859C8.90785 4.10163 8.94232 4.12468 8.97134 4.15373Z" fill="#454545"/>
</svg>
