<svg width="24" height="25" viewBox="0 0 24 25" fill="none" xmlns="http://www.w3.org/2000/svg">
<g id="Calendar Icon">
<path id="Vector" d="M19.5 3.6875H17.0625V2.75C17.0625 2.60082 17.0032 2.45774 16.8977 2.35225C16.7923 2.24676 16.6492 2.1875 16.5 2.1875C16.3508 2.1875 16.2077 2.24676 16.1023 2.35225C15.9968 2.45774 15.9375 2.60082 15.9375 2.75V3.6875H8.0625V2.75C8.0625 2.60082 8.00324 2.45774 7.89775 2.35225C7.79226 2.24676 7.64918 2.1875 7.5 2.1875C7.35082 2.1875 7.20774 2.24676 7.10225 2.35225C6.99676 2.45774 6.9375 2.60082 6.9375 2.75V3.6875H4.5C4.1519 3.6875 3.81806 3.82578 3.57192 4.07192C3.32578 4.31806 3.1875 4.6519 3.1875 5V20C3.1875 20.3481 3.32578 20.6819 3.57192 20.9281C3.81806 21.1742 4.1519 21.3125 4.5 21.3125H19.5C19.8481 21.3125 20.1819 21.1742 20.4281 20.9281C20.6742 20.6819 20.8125 20.3481 20.8125 20V5C20.8125 4.6519 20.6742 4.31806 20.4281 4.07192C20.1819 3.82578 19.8481 3.6875 19.5 3.6875ZM4.5 4.8125H6.9375V5.75C6.9375 5.89918 6.99676 6.04226 7.10225 6.14775C7.20774 6.25324 7.35082 6.3125 7.5 6.3125C7.64918 6.3125 7.79226 6.25324 7.89775 6.14775C8.00324 6.04226 8.0625 5.89918 8.0625 5.75V4.8125H15.9375V5.75C15.9375 5.89918 15.9968 6.04226 16.1023 6.14775C16.2077 6.25324 16.3508 6.3125 16.5 6.3125C16.6492 6.3125 16.7923 6.25324 16.8977 6.14775C17.0032 6.04226 17.0625 5.89918 17.0625 5.75V4.8125H19.5C19.5497 4.8125 19.5974 4.83225 19.6326 4.86742C19.6677 4.90258 19.6875 4.95027 19.6875 5V8.1875H4.3125V5C4.3125 4.95027 4.33225 4.90258 4.36742 4.86742C4.40258 4.83225 4.45027 4.8125 4.5 4.8125ZM19.5 20.1875H4.5C4.45027 20.1875 4.40258 20.1677 4.36742 20.1326C4.33225 20.0974 4.3125 20.0497 4.3125 20V9.3125H19.6875V20C19.6875 20.0497 19.6677 20.0974 19.6326 20.1326C19.5974 20.1677 19.5497 20.1875 19.5 20.1875ZM10.3125 11.75V17.75C10.3125 17.8992 10.2532 18.0423 10.1477 18.1477C10.0423 18.2532 9.89918 18.3125 9.75 18.3125C9.60082 18.3125 9.45774 18.2532 9.35225 18.1477C9.24676 18.0423 9.1875 17.8992 9.1875 17.75V12.6603L8.50125 13.0034C8.43514 13.0364 8.36317 13.0561 8.28947 13.0613C8.21576 13.0664 8.14176 13.0571 8.07168 13.0336C8.0016 13.0102 7.93682 12.9732 7.88103 12.9248C7.82525 12.8763 7.77956 12.8174 7.74656 12.7512C7.71357 12.6851 7.69392 12.6132 7.68874 12.5395C7.68355 12.4658 7.69294 12.3918 7.71636 12.3217C7.73977 12.2516 7.77676 12.1868 7.82522 12.131C7.87367 12.0753 7.93264 12.0296 7.99875 11.9966L9.49875 11.2466C9.58452 11.2037 9.67982 11.1836 9.77558 11.1879C9.87135 11.1923 9.96442 11.221 10.0459 11.2715C10.1275 11.3219 10.1948 11.3923 10.2414 11.4761C10.2881 11.5598 10.3125 11.6541 10.3125 11.75ZM15.8972 14.4922L13.875 17.1875H15.75C15.8992 17.1875 16.0423 17.2468 16.1477 17.3523C16.2532 17.4577 16.3125 17.6008 16.3125 17.75C16.3125 17.8992 16.2532 18.0423 16.1477 18.1477C16.0423 18.2532 15.8992 18.3125 15.75 18.3125H12.75C12.6455 18.3125 12.5431 18.2834 12.4543 18.2285C12.3654 18.1736 12.2936 18.095 12.2469 18.0016C12.2002 17.9081 12.1804 17.8035 12.1898 17.6995C12.1992 17.5954 12.2373 17.4961 12.3 17.4125L15 13.8125C15.0777 13.7103 15.1337 13.5933 15.1643 13.4686C15.195 13.344 15.1997 13.2143 15.1782 13.0878C15.1568 12.9612 15.1095 12.8404 15.0394 12.7329C14.9693 12.6253 14.8779 12.5333 14.7708 12.4625C14.6636 12.3918 14.5431 12.3437 14.4167 12.3215C14.2903 12.2992 14.1606 12.3031 14.0358 12.333C13.9109 12.3629 13.7935 12.4181 13.6909 12.4952C13.5882 12.5723 13.5025 12.6697 13.4391 12.7812C13.4055 12.8512 13.3579 12.9134 13.2991 12.9641C13.2404 13.0147 13.1718 13.0527 13.0976 13.0755C13.0235 13.0984 12.9455 13.1056 12.8684 13.0969C12.7913 13.0881 12.7169 13.0635 12.6498 13.0246C12.5827 12.9857 12.5243 12.9334 12.4784 12.8708C12.4325 12.8083 12.4001 12.737 12.3831 12.6613C12.3661 12.5856 12.3649 12.5072 12.3796 12.4311C12.3944 12.3549 12.4247 12.2826 12.4688 12.2188C12.6101 11.9761 12.7996 11.7648 13.0255 11.5979C13.2514 11.431 13.509 11.3121 13.7825 11.2483C14.056 11.1845 14.3397 11.1772 14.6161 11.2269C14.8925 11.2767 15.1559 11.3823 15.39 11.5374C15.6242 11.6926 15.8242 11.8939 15.9777 12.129C16.1313 12.3642 16.2353 12.6282 16.2832 12.9049C16.3311 13.1817 16.322 13.4653 16.2565 13.7384C16.1909 14.0115 16.0702 14.2683 15.9019 14.4931L15.8972 14.4922Z" fill="#29A3D2"/>
</g>
</svg>
