<svg width="24" height="24" viewBox="0 0 24 24" fill="none" xmlns="http://www.w3.org/2000/svg">
<path d="M10.1984 4.7998H13.7984C13.7984 4.32241 13.6088 3.86458 13.2712 3.52701C12.9337 3.18945 12.4758 2.9998 11.9984 2.9998C11.521 2.9998 11.0632 3.18945 10.7256 3.52701C10.3881 3.86458 10.1984 4.32241 10.1984 4.7998ZM8.99844 4.7998C8.99844 4.00416 9.31451 3.24109 9.87712 2.67848C10.4397 2.11588 11.2028 1.7998 11.9984 1.7998C12.7941 1.7998 13.5571 2.11588 14.1198 2.67848C14.6824 3.24109 14.9984 4.00416 14.9984 4.7998H20.9984C21.1576 4.7998 21.3102 4.86302 21.4227 4.97554C21.5352 5.08806 21.5984 5.24067 21.5984 5.3998C21.5984 5.55893 21.5352 5.71155 21.4227 5.82407C21.3102 5.93659 21.1576 5.9998 20.9984 5.9998H19.7336L18.3008 18.4126C18.1996 19.29 17.7792 20.0996 17.1199 20.6873C16.4605 21.275 15.6081 21.5997 14.7248 21.5998H9.27204C8.38878 21.5997 7.53637 21.275 6.877 20.6873C6.21763 20.0996 5.79732 19.29 5.69604 18.4126L4.26324 5.9998H2.99844C2.83931 5.9998 2.6867 5.93659 2.57417 5.82407C2.46165 5.71155 2.39844 5.55893 2.39844 5.3998C2.39844 5.24067 2.46165 5.08806 2.57417 4.97554C2.6867 4.86302 2.83931 4.7998 2.99844 4.7998H8.99844ZM6.88764 18.2758C6.95535 18.8607 7.23569 19.4003 7.67534 19.7919C8.11498 20.1835 8.68325 20.3999 9.27204 20.3998H14.7248C15.3136 20.3999 15.8819 20.1835 16.3215 19.7919C16.7612 19.4003 17.0415 18.8607 17.1092 18.2758L18.5252 5.9998H5.47164L6.88764 18.2758ZM10.1984 8.9998C10.3576 8.9998 10.5102 9.06302 10.6227 9.17554C10.7352 9.28806 10.7984 9.44067 10.7984 9.5998V16.7998C10.7984 16.9589 10.7352 17.1115 10.6227 17.2241C10.5102 17.3366 10.3576 17.3998 10.1984 17.3998C10.0393 17.3998 9.88669 17.3366 9.77417 17.2241C9.66165 17.1115 9.59844 16.9589 9.59844 16.7998V9.5998C9.59844 9.44067 9.66165 9.28806 9.77417 9.17554C9.88669 9.06302 10.0393 8.9998 10.1984 8.9998ZM14.3984 9.5998C14.3984 9.44067 14.3352 9.28806 14.2227 9.17554C14.1102 9.06302 13.9576 8.9998 13.7984 8.9998C13.6393 8.9998 13.4867 9.06302 13.3742 9.17554C13.2617 9.28806 13.1984 9.44067 13.1984 9.5998V16.7998C13.1984 16.9589 13.2617 17.1115 13.3742 17.2241C13.4867 17.3366 13.6393 17.3998 13.7984 17.3998C13.9576 17.3998 14.1102 17.3366 14.2227 17.2241C14.3352 17.1115 14.3984 16.9589 14.3984 16.7998V9.5998Z" fill="#454545"/>
</svg>
