<svg width="24" height="24" viewBox="0 0 24 24" fill="none" xmlns="http://www.w3.org/2000/svg">
<path d="M3.54688 20.9378H20.4469C20.5795 20.9378 20.7067 20.8851 20.8004 20.7913C20.8942 20.6976 20.9469 20.5704 20.9469 20.4378C20.9469 20.3052 20.8942 20.178 20.8004 20.0842C20.7067 19.9905 20.5795 19.9378 20.4469 19.9378H3.54688C3.41427 19.9378 3.28709 19.9905 3.19332 20.0842C3.09955 20.178 3.04688 20.3052 3.04688 20.4378C3.04688 20.5704 3.09955 20.6976 3.19332 20.7913C3.28709 20.8851 3.41427 20.9378 3.54688 20.9378ZM9.70887 17.1798C10.1313 17.0616 10.5167 16.8379 10.8289 16.5298L20.3689 6.98978C20.6956 6.66179 20.879 6.21771 20.879 5.75478C20.879 5.29184 20.6956 4.84777 20.3689 4.51978L19.4289 3.58978C19.0962 3.27203 18.6539 3.09473 18.1939 3.09473C17.7339 3.09473 17.2915 3.27203 16.9589 3.58978L7.41887 13.1198C7.11021 13.4299 6.88937 13.8164 6.77888 14.2398L6.03887 16.9998C6.00377 17.1259 6.00286 17.259 6.03625 17.3855C6.06965 17.5121 6.13613 17.6274 6.22887 17.7198C6.37042 17.8589 6.5604 17.9378 6.75888 17.9398L9.70887 17.1798ZM10.1189 15.8198C9.93452 16.0075 9.70312 16.1422 9.44887 16.2098L8.47887 16.4698L7.47888 15.4698L7.73887 14.4998C7.80882 14.2465 7.94319 14.0157 8.12887 13.8298L8.50887 13.4598L10.4989 15.4498L10.1189 15.8198ZM11.2089 14.7398L9.21887 12.7498L15.9489 6.01978L17.9389 8.00978L11.2089 14.7398ZM19.6589 6.28978L18.6489 7.29978L16.6589 5.30978L17.6689 4.28978C17.7384 4.21999 17.821 4.16462 17.9119 4.12684C18.0029 4.08906 18.1004 4.06961 18.1989 4.06961C18.2974 4.06961 18.3949 4.08906 18.4858 4.12684C18.5768 4.16462 18.6594 4.21999 18.7289 4.28978L19.6589 5.22978C19.7984 5.37091 19.8766 5.56135 19.8766 5.75978C19.8766 5.95821 19.7984 6.14864 19.6589 6.28978Z" fill="#454545"/>
</svg>
