<svg width="30" height="30" viewBox="0 0 30 30" fill="none" xmlns="http://www.w3.org/2000/svg">
<g id="icon_btn">
<path id="Vector" fill-rule="evenodd" clip-rule="evenodd" d="M23.5628 8.0638C23.6697 7.95704 23.7545 7.83026 23.8124 7.69072C23.8703 7.55117 23.9002 7.40159 23.9003 7.25051C23.9004 7.09943 23.8707 6.94981 23.813 6.81019C23.7553 6.67058 23.6706 6.5437 23.5638 6.4368C23.4571 6.32991 23.3303 6.24509 23.1907 6.18718C23.0512 6.12928 22.9016 6.09943 22.7505 6.09934C22.5995 6.09925 22.4498 6.12891 22.3102 6.18664C22.1706 6.24437 22.0437 6.32904 21.9368 6.4358L14.9988 13.3738L8.06283 6.4358C7.84694 6.21992 7.55414 6.09863 7.24883 6.09863C6.94352 6.09863 6.65071 6.21992 6.43483 6.4358C6.21894 6.65169 6.09766 6.94449 6.09766 7.2498C6.09766 7.55511 6.21894 7.84792 6.43483 8.0638L13.3728 14.9998L6.43483 21.9358C6.32793 22.0427 6.24314 22.1696 6.18528 22.3093C6.12743 22.4489 6.09766 22.5986 6.09766 22.7498C6.09766 22.901 6.12743 23.0507 6.18528 23.1903C6.24314 23.33 6.32793 23.4569 6.43483 23.5638C6.65071 23.7797 6.94352 23.901 7.24883 23.901C7.4 23.901 7.54969 23.8712 7.68936 23.8133C7.82903 23.7555 7.95593 23.6707 8.06283 23.5638L14.9988 16.6258L21.9368 23.5638C22.1527 23.7794 22.4454 23.9005 22.7505 23.9003C23.0557 23.9001 23.3482 23.7787 23.5638 23.5628C23.7794 23.3469 23.9005 23.0542 23.9003 22.7491C23.9001 22.444 23.7787 22.1514 23.5628 21.9358L16.6248 14.9998L23.5628 8.0638Z" fill="#454545"/>
</g>
</svg>
