<svg width="30" height="31" viewBox="0 0 30 31" fill="none" xmlns="http://www.w3.org/2000/svg">
<circle cx="15" cy="15.5" r="15" fill="#29A3D2"/>
<g clip-path="url(#clip0_2819_12665)">
<path d="M25.9642 19.8049C26.1439 19.5985 26.2567 19.3423 26.2876 19.0703C26.3184 18.7984 26.2658 18.5235 26.1368 18.2821L24.5896 15.3232C24.4233 15.0063 24.1908 14.7288 23.9079 14.5095C23.6251 14.2902 23.2984 14.1342 22.95 14.052L11.3749 11.182L9.7245 9.04223C9.59094 8.87097 9.40681 8.74614 9.19826 8.68549C8.98972 8.62483 8.76737 8.63142 8.56278 8.70433C8.3582 8.77724 8.18179 8.91276 8.05861 9.09163C7.93543 9.27051 7.87174 9.48365 7.87659 9.70078L7.98958 13.2321C7.89317 13.7481 8.0956 13.8684 13.944 16.1625L10.2672 19.9222C10.1633 20.0205 10.0895 20.1463 10.0544 20.2849C10.0192 20.4236 10.0241 20.5693 10.0685 20.7053C10.101 20.8027 10.152 20.8928 10.2188 20.9708C10.3565 21.125 10.5453 21.2242 10.7504 21.25L12.5316 21.4886C12.7105 21.5112 12.8918 21.4759 13.0491 21.388L18.8956 18.0705C21.0216 18.8756 23.0287 19.6427 24.4724 20.1791C24.7296 20.276 25.0102 20.2921 25.2768 20.2252C25.5434 20.1583 25.7832 20.0117 25.9642 19.8049ZM24.8594 19.1364C23.3623 18.5796 21.2655 17.8007 19.0461 16.9361L18.8018 16.8438L12.5777 20.3767L11.4824 20.2296L15.8987 15.7262L15.1343 15.403C10.8716 13.78 9.52443 13.1771 9.07839 12.9567L8.99407 9.90896L10.7145 12.1495L22.7005 15.1461C22.8915 15.191 23.071 15.2757 23.2271 15.3947C23.3831 15.5137 23.5123 15.6643 23.6062 15.8366L25.159 18.7762C25.1843 18.8204 25.1947 18.8715 25.1889 18.9221C25.183 18.9726 25.1612 19.02 25.1266 19.0573C25.0965 19.0975 25.0542 19.1269 25.0061 19.1411C24.9579 19.1554 24.9065 19.1537 24.8594 19.1364Z" fill="white"/>
<path d="M13.8252 9.1254L14.6709 10.9976L15.763 11.2706L14.8282 9.154L15.9392 9.52723L17.9606 11.798L19.4927 12.1805L16.6158 8.95944C16.534 8.85046 16.4219 8.76796 16.2935 8.72224L14.7032 8.14933C14.5707 8.1028 14.4274 8.09651 14.2914 8.13127C14.1554 8.16604 14.0327 8.24029 13.9388 8.34467C13.8449 8.44905 13.784 8.57889 13.7638 8.71783C13.7436 8.85677 13.7649 8.99858 13.8252 9.1254Z" fill="white"/>
</g>
<defs>
<clipPath id="clip0_2819_12665">
<rect width="20" height="20" fill="white" transform="translate(16.6641 1.66797) rotate(50)"/>
</clipPath>
</defs>
</svg>
