<svg width="30" height="31" viewBox="0 0 30 31" fill="none" xmlns="http://www.w3.org/2000/svg">
<circle cx="15" cy="15.5" r="15" fill="#B2C535"/>
<path d="M11.8641 16.567L15.1641 24.267L18.4641 16.567M15.1641 10.8073C14.5802 10.2847 13.8093 9.96699 12.9641 9.96699C11.1415 9.96699 9.66406 11.4445 9.66406 13.267C9.66406 15.0895 11.1415 16.567 12.9641 16.567C13.8093 16.567 14.5802 16.2493 15.1641 15.7267M11.8641 9.96699C11.8641 8.14445 13.3415 6.66699 15.1641 6.66699C16.9866 6.66699 18.4641 8.14445 18.4641 9.96699M20.6641 13.267C20.6641 15.0895 19.1866 16.567 17.3641 16.567C15.5415 16.567 14.0641 15.0895 14.0641 13.267C14.0641 11.4445 15.5415 9.96699 17.3641 9.96699C19.1866 9.96699 20.6641 11.4445 20.6641 13.267Z" stroke="white" stroke-width="1.2"/>
</svg>
