<svg width="31" height="31" viewBox="0 0 31 31" fill="none" xmlns="http://www.w3.org/2000/svg">
<circle cx="15.5" cy="15.5" r="15" fill="#F8C747"/>
<g clip-path="url(#clip0_2819_12674)">
<path d="M9.35714 19.0718V10.7861V19.0718ZM9.35714 19.0718C9.35714 19.0718 9.35714 20.7861 8.5 20.7861L9.35714 19.0718ZM9.35714 19.0718H21.3571H9.35714ZM21.3571 19.0718C21.3571 19.0718 21.3571 20.7861 22.2143 20.7861L21.3571 19.0718ZM21.3571 19.0718V15.929C21.3571 15.3986 21.1464 14.8898 20.7714 14.5148C20.3963 14.1397 19.8876 13.929 19.3571 13.929H14.5V16.2147M9.35714 17.3576H21.3571H9.35714ZM13.3571 15.0147C13.3571 15.0147 12.7857 15.929 12.0714 15.929C11.8062 15.929 11.5519 15.8236 11.3643 15.6361C11.1768 15.4486 11.0714 15.1942 11.0714 14.929C11.0714 14.377 11.5194 13.9313 12.0714 13.9313C12.7857 13.9313 13.3571 14.8433 13.3571 14.8433V15.0147Z" fill="white"/>
<path d="M9.35714 19.0718V10.7861M9.35714 19.0718C9.35714 19.0718 9.35714 20.7861 8.5 20.7861M9.35714 19.0718H21.3571M21.3571 19.0718C21.3571 19.0718 21.3571 20.7861 22.2143 20.7861M21.3571 19.0718V15.929C21.3571 15.3986 21.1464 14.8898 20.7714 14.5148C20.3963 14.1397 19.8876 13.929 19.3571 13.929H14.5V16.2147M9.35714 17.3576H21.3571M13.3571 15.0147C13.3571 15.0147 12.7857 15.929 12.0714 15.929C11.8062 15.929 11.5519 15.8236 11.3643 15.6361C11.1768 15.4486 11.0714 15.1942 11.0714 14.929C11.0714 14.377 11.5194 13.9313 12.0714 13.9313C12.7857 13.9313 13.3571 14.8433 13.3571 14.8433V15.0147Z" stroke="white"/>
</g>
<defs>
<clipPath id="clip0_2819_12674">
<rect width="13.7143" height="13.7143" fill="white" transform="translate(8.5 8.5)"/>
</clipPath>
</defs>
</svg>
