<svg width="55" height="55" viewBox="0 0 55 55" fill="none" xmlns="http://www.w3.org/2000/svg">
<g id="pepicons-pencil:ticket-circle">
<g id="Group">
<path id="Vector" fill-rule="evenodd" clip-rule="evenodd" d="M7.64589 28.3734C7.25444 27.6284 7.17496 26.7584 7.42493 25.9549C7.67491 25.1513 8.23386 24.4799 8.97883 24.0885L35.1953 10.3128C35.9402 9.92136 36.8102 9.84188 37.6138 10.0919C38.4173 10.3418 39.0887 10.9008 39.4801 11.6458L42.0778 16.5894C42.3425 17.0932 42.2782 17.7029 41.917 18.1388C41.7017 18.3989 41.5682 18.7168 41.5333 19.0526C41.4983 19.3884 41.5634 19.7271 41.7205 20.0259C41.8775 20.3248 42.1194 20.5705 42.4158 20.7322C42.7122 20.8939 43.0498 20.9643 43.3861 20.9346C43.6622 20.9102 43.9393 20.9681 44.1826 21.1009C44.4259 21.2338 44.6245 21.4356 44.7533 21.681L47.352 26.6266C47.7434 27.3715 47.8229 28.2415 47.5729 29.0451C47.3229 29.8486 46.764 30.52 46.019 30.9114L19.8026 44.6871C19.0576 45.0786 18.1876 45.1581 17.3841 44.9081C16.5805 44.6581 15.9092 44.0991 15.5177 43.3542L12.92 38.4105C12.6553 37.9068 12.7197 37.2971 13.0799 36.8593C13.2951 36.5992 13.4286 36.2812 13.4636 35.9454C13.4986 35.6096 13.4334 35.271 13.2764 34.9721C13.1193 34.6733 12.8774 34.4275 12.581 34.2659C12.2847 34.1042 11.9471 34.0338 11.6108 34.0635C11.335 34.0878 11.0582 34.0301 10.8152 33.8976C10.5721 33.7652 10.3736 33.5638 10.2446 33.3189L7.64589 28.3734ZM9.9628 25.9611C9.71448 26.0916 9.52816 26.3154 9.44484 26.5832C9.36151 26.8511 9.38801 27.1411 9.51849 27.3894L11.9105 31.9417C14.8447 32.032 16.5883 35.3503 14.9983 37.8179L17.3903 42.3702C17.5208 42.6185 17.7446 42.8048 18.0124 42.8882C18.2803 42.9715 18.5703 42.945 18.8186 42.8145L45.035 29.0388C45.2834 28.9084 45.4697 28.6846 45.553 28.4167C45.6363 28.1489 45.6098 27.8589 45.4794 27.6106L43.0873 23.0583C40.1531 22.9679 38.4095 19.6497 39.9996 17.182L37.6075 12.6297C37.4771 12.3814 37.2533 12.1951 36.9854 12.1118C36.7176 12.0284 36.4276 12.0549 36.1792 12.1854L9.9628 25.9611Z" fill="#EBA534"/>
<path id="Vector_2" fill-rule="evenodd" clip-rule="evenodd" d="M35.3776 31.1264C35.7501 30.9307 36.1851 30.8909 36.5869 31.0159C36.9887 31.1409 37.3243 31.4204 37.5201 31.7929L38.0121 32.7292C38.2078 33.1017 38.2475 33.5366 38.1225 33.9384C37.9975 34.3402 37.7181 34.6759 37.3456 34.8716C36.9731 35.0673 36.5381 35.1071 36.1363 34.9821C35.7346 34.8571 35.3989 34.5776 35.2031 34.2051L34.7112 33.2688C34.5154 32.8964 34.4757 32.4614 34.6007 32.0596C34.7257 31.6578 35.0051 31.3221 35.3776 31.1264ZM27.0138 15.2093C27.3863 15.0136 27.8213 14.9738 28.2231 15.0988C28.6249 15.2238 28.9605 15.5033 29.1563 15.8758L29.6483 16.8121C29.844 17.1845 29.8837 17.6195 29.7587 18.0213C29.6337 18.4231 29.3543 18.7588 28.9818 18.9545C28.6093 19.1502 28.1743 19.19 27.7725 19.065C27.3707 18.94 27.0351 18.6605 26.8393 18.288L26.3474 17.3517C26.1516 16.9792 26.1119 16.5443 26.2369 16.1425C26.3619 15.7407 26.6413 15.405 27.0138 15.2093ZM29.7198 20.3589C30.0922 20.1632 30.5272 20.1235 30.929 20.2485C31.3308 20.3735 31.6665 20.6529 31.8622 21.0254L32.3542 21.9617C32.5499 22.3342 32.5897 22.7692 32.4647 23.171C32.3397 23.5727 32.0602 23.9084 31.6877 24.1041C31.3152 24.2999 30.8803 24.3396 30.4785 24.2146C30.0767 24.0896 29.741 23.8102 29.5453 23.4377L29.0533 22.5014C28.8576 22.1289 28.8178 21.6939 28.9428 21.2921C29.0678 20.8903 29.3473 20.5547 29.7198 20.3589ZM32.6717 25.9768C33.0442 25.781 33.4792 25.7413 33.8809 25.8663C34.2827 25.9913 34.6184 26.2707 34.8141 26.6432L35.3061 27.5795C35.5018 27.952 35.5416 28.387 35.4166 28.7888C35.2916 29.1906 35.0121 29.5262 34.6396 29.722C34.2672 29.9177 33.8322 29.9574 33.4304 29.8324C33.0286 29.7074 32.6929 29.428 32.4972 29.0555L32.0052 28.1192C31.8095 27.7467 31.7698 27.3117 31.8947 26.9099C32.0197 26.5082 32.2992 26.1725 32.6717 25.9768Z" fill="#EBA534"/>
<path id="Vector_3" fill-rule="evenodd" clip-rule="evenodd" d="M27.4989 51.8268C40.9338 51.8268 51.8259 40.9347 51.8259 27.4999C51.8259 14.0651 40.9338 3.173 27.4989 3.173C14.0641 3.173 3.17203 14.0651 3.17203 27.4999C3.17203 40.9347 14.0641 51.8268 27.4989 51.8268ZM27.4989 53.9422C42.1036 53.9422 53.9413 42.1045 53.9413 27.4999C53.9413 12.8953 42.1036 1.05762 27.4989 1.05762C12.8943 1.05762 1.05664 12.8953 1.05664 27.4999C1.05664 42.1045 12.8943 53.9422 27.4989 53.9422Z" fill="#EBA534"/>
</g>
</g>
</svg>
