<svg width="55" height="55" viewBox="0 0 55 55" fill="none" xmlns="http://www.w3.org/2000/svg">
<g id="Group">
<path id="Vector" d="M7.93755 44.9728C8.16198 44.9728 8.38512 44.89 8.56053 44.7231C8.92168 44.3775 8.93587 43.8042 8.59149 43.4419C4.21642 38.8347 1.80575 32.8027 1.80575 26.4536C1.80575 20.8603 3.63342 15.5853 7.09272 11.1982C7.37648 10.8371 7.34681 10.3207 7.02307 9.99589L5.8274 8.79622L13.5121 6.72946L11.4523 14.44L10.65 13.635C10.4643 13.4487 10.2051 13.3516 9.9458 13.3723C9.68396 13.3917 9.44406 13.5237 9.2867 13.736C6.54454 17.4334 5.09608 21.8322 5.09608 26.4536C5.09608 31.823 7.09143 36.9543 10.7145 40.9027C11.0525 41.2703 11.6239 41.2949 11.9902 40.9558C12.3565 40.6167 12.381 40.0434 12.043 39.6759C8.72821 36.0626 6.90182 31.3675 6.90182 26.4536C6.90182 22.5776 8.01494 18.8737 10.1302 15.6772L11.2795 16.8303C11.5078 17.0594 11.8405 17.1486 12.1514 17.0645C12.4635 16.9804 12.706 16.7371 12.7898 16.4239L15.6597 5.6812C15.7435 5.36802 15.6545 5.03542 15.4262 4.80636C15.1979 4.57729 14.8652 4.488 14.5543 4.57212L3.84753 7.4516C3.5354 7.53572 3.29291 7.77902 3.20907 8.0922C3.12523 8.40538 3.21423 8.73798 3.44253 8.96704L5.18636 10.7154C1.79027 15.2941 0 20.7179 0 26.4536C0 33.2686 2.58609 39.7458 7.28361 44.6907C7.46032 44.8784 7.69893 44.9728 7.93755 44.9728Z" fill="#EBA534"/>
<path id="Vector_2" d="M54.879 18.6966C54.7178 18.4157 54.4199 18.2436 54.0974 18.2436H51.4301C51.3346 17.9511 51.234 17.6574 51.1282 17.3675C49.2864 12.3306 45.9986 8.01466 41.6197 4.888C37.1414 1.69016 31.8661 0 26.365 0C23.1082 0 19.9262 0.591426 16.908 1.75875C16.4424 1.93863 16.2115 2.46276 16.3908 2.92995C16.5701 3.39714 17.0925 3.62879 17.5581 3.44891C20.3673 2.36182 23.3301 1.81051 26.365 1.81051C36.6255 1.81051 45.8954 8.31231 49.4334 17.9912C49.605 18.4597 49.7623 18.936 49.9003 19.4058C50.0138 19.7901 50.366 20.0554 50.7658 20.0554H52.5341L48.5563 26.9688L46.4269 23.2688C46.4217 23.2584 46.4152 23.2481 46.4101 23.2377L44.5785 20.0554H45.3898C45.6865 20.0554 45.9651 19.9092 46.1328 19.6633C46.3004 19.4174 46.3391 19.1055 46.2334 18.8273C46.0373 18.3109 45.8168 17.7932 45.5769 17.2898C43.873 13.6999 41.2082 10.6612 37.8689 8.50255C34.4393 6.28568 30.4615 5.11318 26.3637 5.11318C23.748 5.11318 21.1941 5.58425 18.7718 6.51345C18.3062 6.69204 18.0728 7.21617 18.2507 7.68336C18.4287 8.15055 18.9511 8.38479 19.4167 8.20619C21.6327 7.35594 23.9698 6.92628 26.3637 6.92628C33.8331 6.92628 40.7349 11.3005 43.9478 18.0715C43.9749 18.1297 44.002 18.1867 44.0291 18.2449H43.014C42.6915 18.2449 42.3936 18.417 42.2324 18.6979C42.0711 18.9787 42.0711 19.3229 42.2324 19.6038L44.8288 24.1165C44.8339 24.1268 44.8404 24.1372 44.8455 24.1475L47.7734 29.2361C47.9347 29.5169 48.2326 29.6891 48.5551 29.6891C48.8775 29.6891 49.1755 29.5169 49.3367 29.2361L54.8778 19.6051C55.0403 19.3216 55.0403 18.9774 54.879 18.6966Z" fill="#EBA534"/>
<path id="Vector_3" d="M12.3045 44.6989C12.1716 44.994 12.2064 45.3369 12.3947 45.5996L18.8735 54.6237C19.0438 54.8618 19.3172 55.0003 19.6061 55.0003C19.6358 55.0003 19.6667 54.999 19.6964 54.9951C20.0176 54.9628 20.2962 54.7609 20.429 54.4658L21.3448 52.425C22.9893 52.7446 24.6751 52.9064 26.3661 52.9064C32.4347 52.9064 38.3627 50.7788 43.0589 46.9145C47.6894 43.1045 50.9204 37.792 52.1573 31.958C52.2605 31.4688 51.9496 30.9874 51.4621 30.8839C50.9758 30.7803 50.4947 31.0922 50.3915 31.5814C47.9963 42.8884 37.8932 51.0946 26.3674 51.0946C24.5603 51.0946 22.7597 50.8966 21.0185 50.5057C20.5993 50.4113 20.1736 50.6261 19.9982 51.0182L19.4268 52.2917L14.7758 45.8132L22.6927 45.0121L22.1445 46.2325C22.0297 46.4887 22.04 46.7838 22.1716 47.031C22.3031 47.2781 22.543 47.4515 22.8191 47.4968C23.9812 47.6923 25.1756 47.7919 26.3674 47.7919C36.0784 47.7919 44.5499 41.2099 46.9658 31.7846C47.0896 31.3006 46.7994 30.8062 46.3157 30.682C45.832 30.5577 45.3406 30.8489 45.2168 31.3342C43.0047 39.9597 35.2529 45.9827 26.3661 45.9827C25.6709 45.9827 24.9744 45.9465 24.2856 45.8727L24.9795 44.3262C25.1124 44.0311 25.0775 43.6882 24.8892 43.4255C24.7009 43.1627 24.3875 43.0217 24.0663 43.054L13.0384 44.1709C12.7159 44.2019 12.4373 44.4038 12.3045 44.6989Z" fill="#EBA534"/>
</g>
</svg>
