<svg width="160" height="160" viewBox="0 0 160 160" fill="none" xmlns="http://www.w3.org/2000/svg">
<path d="M80.0006 13.334C81.7688 13.334 83.4644 14.0364 84.7147 15.2866C85.9649 16.5368 86.6673 18.2325 86.6673 20.0007V40.0007C86.6673 41.7688 85.9649 43.4645 84.7147 44.7147C83.4644 45.9649 81.7688 46.6673 80.0006 46.6673C78.2325 46.6673 76.5368 45.9649 75.2866 44.7147C74.0364 43.4645 73.334 41.7688 73.334 40.0007V20.0007C73.334 18.2325 74.0364 16.5368 75.2866 15.2866C76.5368 14.0364 78.2325 13.334 80.0006 13.334ZM80.0006 113.334C81.7688 113.334 83.4644 114.036 84.7147 115.287C85.9649 116.537 86.6673 118.233 86.6673 120.001V140.001C86.6673 141.769 85.9649 143.464 84.7147 144.715C83.4644 145.965 81.7688 146.667 80.0006 146.667C78.2325 146.667 76.5368 145.965 75.2866 144.715C74.0364 143.464 73.334 141.769 73.334 140.001V120.001C73.334 118.233 74.0364 116.537 75.2866 115.287C76.5368 114.036 78.2325 113.334 80.0006 113.334ZM146.667 80.0006C146.667 81.7688 145.965 83.4644 144.715 84.7147C143.464 85.9649 141.769 86.6673 140.001 86.6673H120.001C118.233 86.6673 116.537 85.9649 115.287 84.7147C114.036 83.4644 113.334 81.7688 113.334 80.0006C113.334 78.2325 114.036 76.5368 115.287 75.2866C116.537 74.0364 118.233 73.334 120.001 73.334H140.001C141.769 73.334 143.464 74.0364 144.715 75.2866C145.965 76.5368 146.667 78.2325 146.667 80.0006ZM46.6673 80.0006C46.6673 81.7688 45.9649 83.4644 44.7147 84.7147C43.4645 85.9649 41.7688 86.6673 40.0007 86.6673H20.0007C18.2325 86.6673 16.5368 85.9649 15.2866 84.7147C14.0364 83.4644 13.334 81.7688 13.334 80.0006C13.334 78.2325 14.0364 76.5368 15.2866 75.2866C16.5368 74.0364 18.2325 73.334 20.0007 73.334H40.0007C41.7688 73.334 43.4645 74.0364 44.7147 75.2866C45.9649 76.5368 46.6673 78.2325 46.6673 80.0006ZM127.141 127.141C125.89 128.39 124.195 129.093 122.427 129.093C120.66 129.093 118.964 128.39 117.714 127.141L103.574 113.001C102.36 111.743 101.688 110.059 101.703 108.311C101.718 106.563 102.419 104.891 103.655 103.655C104.891 102.419 106.563 101.718 108.311 101.703C110.059 101.688 111.743 102.36 113.001 103.574L127.141 117.707C127.76 118.326 128.252 119.062 128.588 119.871C128.923 120.68 129.096 121.548 129.096 122.424C129.096 123.3 128.923 124.168 128.588 124.977C128.252 125.786 127.76 126.521 127.141 127.141ZM56.4273 56.4273C55.1771 57.6771 53.4817 58.3792 51.714 58.3792C49.9462 58.3792 48.2508 57.6771 47.0007 56.4273L32.8673 42.294C31.6164 41.0439 30.9133 39.3481 30.9126 37.5797C30.912 35.8112 31.6139 34.1149 32.864 32.864C34.114 31.613 35.8098 30.9099 37.5783 30.9093C39.3468 30.9087 41.043 31.6106 42.294 32.8606L56.4273 47.0007C57.6771 48.2508 58.3792 49.9462 58.3792 51.714C58.3792 53.4817 57.6771 55.1771 56.4273 56.4273ZM32.8673 127.141C31.6175 125.89 30.9154 124.195 30.9154 122.427C30.9154 120.66 31.6175 118.964 32.8673 117.714L47.0073 103.574C48.2647 102.36 49.9487 101.688 51.6967 101.703C53.4446 101.718 55.1167 102.419 56.3528 103.655C57.5888 104.891 58.29 106.563 58.3051 108.311C58.3203 110.059 57.6484 111.743 56.434 113.001L42.3006 127.141C41.6815 127.76 40.9462 128.252 40.1369 128.588C39.3276 128.923 38.4601 129.096 37.584 129.096C36.7079 129.096 35.8404 128.923 35.031 128.588C34.2217 128.252 33.4865 127.76 32.8673 127.141ZM103.574 56.4273C102.324 55.1771 101.622 53.4817 101.622 51.714C101.622 49.9462 102.324 48.2508 103.574 47.0007L117.707 32.8606C118.326 32.2412 119.061 31.7498 119.87 31.4144C120.679 31.0791 121.546 30.9063 122.422 30.906C123.297 30.9057 124.164 31.0778 124.974 31.4126C125.783 31.7475 126.518 32.2384 127.137 32.8573C127.757 33.4763 128.248 34.2112 128.584 35.0201C128.919 35.8289 129.092 36.696 129.092 37.5716C129.092 38.4473 128.92 39.3144 128.585 40.1235C128.251 40.9327 127.76 41.6679 127.141 42.2873L113.001 56.4273C111.75 57.6771 110.055 58.3792 108.287 58.3792C106.52 58.3792 104.824 57.6771 103.574 56.4273Z" fill="#EBA534"/>
</svg>
