<svg width="134" height="134" viewBox="0 0 134 134" fill="none" xmlns="http://www.w3.org/2000/svg">
<path d="M67.0006 0.333984C68.7688 0.333984 70.4644 1.03636 71.7147 2.28661C72.9649 3.53685 73.6673 5.23254 73.6673 7.00065V27.0007C73.6673 28.7688 72.9649 30.4645 71.7147 31.7147C70.4644 32.9649 68.7688 33.6673 67.0006 33.6673C65.2325 33.6673 63.5368 32.9649 62.2866 31.7147C61.0364 30.4645 60.334 28.7688 60.334 27.0007V7.00065C60.334 5.23254 61.0364 3.53685 62.2866 2.28661C63.5368 1.03636 65.2325 0.333984 67.0006 0.333984ZM67.0006 100.334C68.7688 100.334 70.4644 101.036 71.7147 102.287C72.9649 103.537 73.6673 105.233 73.6673 107.001V127.001C73.6673 128.769 72.9649 130.464 71.7147 131.715C70.4644 132.965 68.7688 133.667 67.0006 133.667C65.2325 133.667 63.5368 132.965 62.2866 131.715C61.0364 130.464 60.334 128.769 60.334 127.001V107.001C60.334 105.233 61.0364 103.537 62.2866 102.287C63.5368 101.036 65.2325 100.334 67.0006 100.334ZM133.667 67.0006C133.667 68.7688 132.965 70.4644 131.715 71.7147C130.464 72.9649 128.769 73.6673 127.001 73.6673H107.001C105.233 73.6673 103.537 72.9649 102.287 71.7147C101.036 70.4644 100.334 68.7688 100.334 67.0006C100.334 65.2325 101.036 63.5368 102.287 62.2866C103.537 61.0364 105.233 60.334 107.001 60.334H127.001C128.769 60.334 130.464 61.0364 131.715 62.2866C132.965 63.5368 133.667 65.2325 133.667 67.0006ZM33.6673 67.0006C33.6673 68.7688 32.9649 70.4644 31.7147 71.7147C30.4645 72.9649 28.7688 73.6673 27.0007 73.6673H7.00065C5.23254 73.6673 3.53685 72.9649 2.28661 71.7147C1.03636 70.4644 0.333984 68.7688 0.333984 67.0006C0.333984 65.2325 1.03636 63.5368 2.28661 62.2866C3.53685 61.0364 5.23254 60.334 7.00065 60.334H27.0007C28.7688 60.334 30.4645 61.0364 31.7147 62.2866C32.9649 63.5368 33.6673 65.2325 33.6673 67.0006ZM114.141 114.141C112.89 115.39 111.195 116.093 109.427 116.093C107.66 116.093 105.964 115.39 104.714 114.141L90.574 100.001C89.3596 98.7433 88.6876 97.0593 88.7028 95.3113C88.718 93.5633 89.4191 91.8912 90.6552 90.6552C91.8912 89.4191 93.5633 88.718 95.3113 88.7028C97.0593 88.6876 98.7433 89.3596 100.001 90.574L114.141 104.707C114.76 105.326 115.252 106.062 115.588 106.871C115.923 107.68 116.096 108.548 116.096 109.424C116.096 110.3 115.923 111.168 115.588 111.977C115.252 112.786 114.76 113.521 114.141 114.141ZM43.4273 43.4273C42.1771 44.6771 40.4817 45.3792 38.714 45.3792C36.9462 45.3792 35.2508 44.6771 34.0007 43.4273L19.8673 29.294C18.6164 28.0439 17.9133 26.3481 17.9126 24.5797C17.912 22.8112 18.6139 21.1149 19.864 19.864C21.114 18.613 22.8098 17.9099 24.5783 17.9093C26.3468 17.9087 28.043 18.6106 29.294 19.8606L43.4273 34.0007C44.6771 35.2508 45.3792 36.9462 45.3792 38.714C45.3792 40.4817 44.6771 42.1771 43.4273 43.4273ZM19.8673 114.141C18.6175 112.89 17.9154 111.195 17.9154 109.427C17.9154 107.66 18.6175 105.964 19.8673 104.714L34.0073 90.574C35.2647 89.3596 36.9487 88.6876 38.6967 88.7028C40.4446 88.718 42.1167 89.4191 43.3528 90.6552C44.5888 91.8912 45.29 93.5633 45.3051 95.3113C45.3203 97.0593 44.6484 98.7433 43.434 100.001L29.3006 114.141C28.6815 114.76 27.9462 115.252 27.1369 115.588C26.3276 115.923 25.4601 116.096 24.584 116.096C23.7079 116.096 22.8404 115.923 22.031 115.588C21.2217 115.252 20.4865 114.76 19.8673 114.141ZM90.574 43.4273C89.3242 42.1771 88.6221 40.4817 88.6221 38.714C88.6221 36.9462 89.3242 35.2508 90.574 34.0007L104.707 19.8606C105.326 19.2412 106.061 18.7498 106.87 18.4144C107.679 18.0791 108.546 17.9063 109.422 17.906C110.297 17.9057 111.164 18.0778 111.974 18.4126C112.783 18.7475 113.518 19.2384 114.137 19.8573C114.757 20.4763 115.248 21.2112 115.584 22.0201C115.919 22.8289 116.092 23.696 116.092 24.5716C116.092 25.4473 115.92 26.3144 115.585 27.1235C115.251 27.9327 114.76 28.6679 114.141 29.2873L100.001 43.4273C98.7505 44.6771 97.0551 45.3792 95.2873 45.3792C93.5196 45.3792 91.8242 44.6771 90.574 43.4273Z" fill="#EBA534"/>
</svg>
