<svg width="55" height="65" viewBox="0 0 55 65" fill="none" xmlns="http://www.w3.org/2000/svg">
<g id="support_icon">
<path id="Vector" d="M39.1363 38.94C39.989 38.1401 40.7165 37.2205 41.2919 36.2099H41.9177C44.9352 36.2099 47.3902 33.8381 47.3902 30.9224V17.4068C47.3902 15.3464 47.0031 13.3357 46.2394 11.4309C45.0045 8.34842 42.8633 5.71563 40.0475 3.81711C37.1648 1.87397 33.7766 0.84668 30.2489 0.84668H23.905C20.3773 0.84668 16.9889 1.87421 14.1059 3.81797C11.3063 5.70584 9.17408 8.31892 7.93664 11.378C7.9283 11.3961 7.92034 11.4144 7.91277 11.433C7.15037 13.3392 6.76372 15.3489 6.76372 17.4068V28.7542C6.76372 30.3952 8.14536 31.7301 9.84373 31.7301H10.5869C10.8762 31.7301 11.1551 31.6886 11.4209 31.6163C11.6677 34.4131 12.9499 37.0071 15.0152 38.9412C9.57151 41.1595 5.92383 46.3455 5.92383 52.192V63.2015C5.92383 63.8127 6.43672 64.3082 7.06929 64.3082H47.0861C47.7189 64.3082 48.2315 63.8127 48.2315 63.2015V52.192C48.2316 46.3444 44.5819 41.1576 39.1363 38.94ZM42.266 33.9771C42.507 33.2092 42.6639 32.4208 42.7342 31.6168C42.9995 31.6889 43.2779 31.7303 43.5668 31.7303H44.3099C44.5493 31.7303 44.7811 31.7012 45.0049 31.6511C44.692 32.8889 43.604 33.8356 42.266 33.9771ZM45.099 22.5611V28.7542C45.099 29.1746 44.7451 29.5166 44.3099 29.5166H43.5668C43.1316 29.5166 42.7777 29.1745 42.7777 28.7542V22.2028C42.7777 21.7823 43.1316 21.4404 43.5668 21.4404H44.3099C44.7451 21.4404 45.099 21.7823 45.099 22.2028V22.5611ZM11.3762 28.7542C11.3762 29.1746 11.0222 29.5166 10.587 29.5166H9.84386C9.40872 29.5166 9.05478 29.1745 9.05478 28.7542V22.5611V22.2028C9.05478 21.7823 9.40872 21.4404 9.84386 21.4404H10.587C11.0222 21.4404 11.3762 21.7823 11.3762 22.2028V28.7542ZM11.3762 17.8835V19.3296C11.1239 19.2648 10.8603 19.2269 10.587 19.2269H9.84386C9.57074 19.2269 9.30712 19.2648 9.05478 19.3296V17.407C9.05478 15.6414 9.38268 13.9177 10.0295 12.2822C10.0372 12.2654 10.0445 12.2486 10.0513 12.2314C11.1203 9.56101 12.9757 7.27949 15.4169 5.63345C17.9134 3.94998 20.8485 3.06028 23.9048 3.06028H30.2486C33.3051 3.06028 36.24 3.94986 38.736 5.63258C41.1769 7.27825 43.0326 9.55964 44.1025 12.2302C44.7637 13.8794 45.0988 15.621 45.0988 17.407V19.3296C44.8464 19.2648 44.5828 19.2269 44.3097 19.2269H43.5665C43.2934 19.2269 43.0298 19.2648 42.7774 19.3296V17.8835C42.7774 10.7922 36.8062 5.02288 29.4667 5.02288H24.6867C17.3474 5.02275 11.3762 10.7921 11.3762 17.8835ZM13.6673 17.8837C13.6673 12.0128 18.6108 7.23648 24.6871 7.23648H29.4671C35.5434 7.23648 40.4869 12.0128 40.4869 17.8837V21.3354L35.3581 14.3991C35.1136 14.0684 34.7012 13.8935 34.2835 13.9443C33.8661 13.9949 33.5107 14.2626 33.3584 14.6415C32.3342 17.1877 30.5594 19.3487 28.226 20.8914C25.8926 22.4337 23.165 23.249 20.3377 23.249H13.6676V17.8837H13.6673ZM13.6673 30.6235V28.7543V25.4622H20.3374C23.6282 25.4622 26.8033 24.5133 29.5195 22.7181C31.6704 21.2965 33.4136 19.4229 34.6381 17.2331L40.4869 25.1433V28.7544V30.6236C40.4869 31.7898 40.2657 32.921 39.8351 33.9966H31.5259C30.893 33.9966 30.3804 34.4921 30.3804 35.1033C30.3804 35.7145 30.8932 36.2101 31.5259 36.2101H38.5763C37.9153 37.0713 37.1041 37.8209 36.1743 38.4213C35.473 38.8739 34.7107 39.2374 33.9076 39.5017C33.898 39.5046 33.8883 39.5076 33.8788 39.5107L28.5583 41.2413C27.6071 41.5509 26.55 41.5509 25.5961 41.2413L20.2762 39.5107C19.4612 39.2456 18.6888 38.8789 17.9801 38.4212C15.2795 36.6785 13.6673 33.7635 13.6673 30.6235ZM34.39 47.8516L28.2233 44.6445V43.5963C28.5846 43.538 28.9408 43.4524 29.2892 43.339L33.3446 42.0198L34.39 47.8516ZM25.9321 43.5965V44.6446L19.7643 47.8517L20.8106 42.0205L24.8654 43.3395C25.2143 43.4528 25.5707 43.5383 25.9321 43.5965ZM25.9321 62.0949H8.21476V52.1922C8.21489 46.8068 11.8707 42.0821 17.1635 40.5406C17.6307 40.8136 18.1177 41.0555 18.6209 41.2651L17.1047 49.7149C17.0299 50.1322 17.208 50.5543 17.5637 50.8019C17.7626 50.9405 17.9975 51.0109 18.2336 51.0109C18.4195 51.0109 18.6061 50.9673 18.7762 50.8788L21.7239 49.3463L25.9321 53.411V62.0949ZM23.8306 48.2509L27.0778 46.5628L30.3239 48.2508L27.0777 51.3873L23.8306 48.2509ZM45.9406 62.0947H28.2233V53.4108L32.4303 49.3459L35.3778 50.8785C35.5478 50.9669 35.7344 51.0106 35.9203 51.0106C36.1562 51.0106 36.3912 50.9402 36.5902 50.8018C36.9458 50.5541 37.124 50.1322 37.0492 49.7149L35.5344 41.2644C36.0368 41.0551 36.5232 40.8132 36.9905 40.5403C42.2843 42.0818 45.9407 46.8064 45.9407 52.192V62.0947H45.9406Z" fill="#EBA534"/>
</g>
</svg>
