<svg width="229" height="50" viewBox="0 0 229 50" fill="none" xmlns="http://www.w3.org/2000/svg">
<path d="M18.728 10.5947L13.418 26H10.2075L16.897 8.22656H18.9478L18.728 10.5947ZM23.1714 26L17.8491 10.5947L17.6172 8.22656H19.6802L26.394 26H23.1714ZM22.915 19.4082V21.8374H13.2471V19.4082H22.915Z" fill="#EBA534"/>
<path d="M26.8066 22.2266H33.0933C34.4442 22.2266 35.5957 22.43 36.5479 22.8369C37.5 23.2438 38.2284 23.846 38.7329 24.6436C39.2456 25.4329 39.502 26.4095 39.502 27.5732C39.502 28.4603 39.3392 29.2415 39.0137 29.917C38.6882 30.5924 38.2284 31.1621 37.6343 31.626C37.0402 32.0817 36.3322 32.4357 35.5103 32.688L34.5825 33.1396H28.9307L28.9062 30.7104H33.1421C33.8745 30.7104 34.4849 30.5802 34.9731 30.3198C35.4614 30.0594 35.8276 29.7054 36.0718 29.2578C36.3241 28.8021 36.4502 28.2894 36.4502 27.7197C36.4502 27.1012 36.3281 26.5641 36.084 26.1084C35.848 25.6445 35.4818 25.2905 34.9854 25.0464C34.4889 24.7941 33.8582 24.668 33.0933 24.668H29.8706V40H26.8066V22.2266ZM36.9507 40L32.7759 32.0166L35.9863 32.0044L40.2222 39.8413V40H36.9507Z" fill="#EBA534"/>
<rect x="1.5" y="1.5" width="47" height="47" rx="8.5" stroke="#EBA534" stroke-width="3"/>
<path d="M73.8135 18.7661L68.9795 33.5H65.0854L71.6895 15.7266H74.1675L73.8135 18.7661ZM77.8296 33.5L72.9834 18.7661L72.5928 15.7266H75.0952L81.7358 33.5H77.8296ZM77.6099 26.8838V29.7524H68.2227V26.8838H77.6099ZM87.1797 23.1729V33.5H83.6641V20.292H86.9722L87.1797 23.1729ZM91.1592 20.2065L91.0981 23.4658C90.9272 23.4414 90.7197 23.4211 90.4756 23.4048C90.2396 23.3804 90.0239 23.3682 89.8286 23.3682C89.3322 23.3682 88.9009 23.4333 88.5347 23.5635C88.1766 23.6855 87.8755 23.8687 87.6313 24.1128C87.3953 24.3569 87.2163 24.654 87.0942 25.0039C86.9803 25.3538 86.9152 25.7526 86.8989 26.2002L86.1909 25.9805C86.1909 25.126 86.2764 24.3407 86.4473 23.6245C86.6182 22.9002 86.8664 22.2695 87.1919 21.7324C87.5256 21.1953 87.9325 20.7803 88.4126 20.4873C88.8927 20.1943 89.4421 20.0479 90.0605 20.0479C90.2559 20.0479 90.4552 20.0641 90.6587 20.0967C90.8621 20.1211 91.029 20.1577 91.1592 20.2065ZM92.3916 27.0303V26.7739C92.3916 25.8055 92.5299 24.9144 92.8066 24.1006C93.0833 23.2786 93.4862 22.5666 94.0151 21.9644C94.5441 21.3621 95.1951 20.8942 95.9683 20.5605C96.7414 20.2188 97.6284 20.0479 98.6294 20.0479C99.6304 20.0479 100.521 20.2188 101.303 20.5605C102.084 20.8942 102.739 21.3621 103.268 21.9644C103.805 22.5666 104.212 23.2786 104.489 24.1006C104.765 24.9144 104.904 25.8055 104.904 26.7739V27.0303C104.904 27.9906 104.765 28.8817 104.489 29.7036C104.212 30.5174 103.805 31.2295 103.268 31.8398C102.739 32.4421 102.088 32.91 101.315 33.2437C100.542 33.5773 99.6548 33.7441 98.6538 33.7441C97.6528 33.7441 96.7617 33.5773 95.9805 33.2437C95.2074 32.91 94.5522 32.4421 94.0151 31.8398C93.4862 31.2295 93.0833 30.5174 92.8066 29.7036C92.5299 28.8817 92.3916 27.9906 92.3916 27.0303ZM95.9072 26.7739V27.0303C95.9072 27.5837 95.9561 28.1004 96.0537 28.5806C96.1514 29.0607 96.306 29.4839 96.5176 29.8501C96.7373 30.2082 97.0221 30.4889 97.3721 30.6924C97.722 30.8958 98.1493 30.9976 98.6538 30.9976C99.1421 30.9976 99.5612 30.8958 99.9111 30.6924C100.261 30.4889 100.542 30.2082 100.753 29.8501C100.965 29.4839 101.12 29.0607 101.217 28.5806C101.323 28.1004 101.376 27.5837 101.376 27.0303V26.7739C101.376 26.2368 101.323 25.7323 101.217 25.2603C101.12 24.7801 100.961 24.3569 100.741 23.9907C100.53 23.6164 100.249 23.3234 99.8989 23.1118C99.549 22.9002 99.1258 22.7944 98.6294 22.7944C98.133 22.7944 97.7098 22.9002 97.3599 23.1118C97.0181 23.3234 96.7373 23.6164 96.5176 23.9907C96.306 24.3569 96.1514 24.7801 96.0537 25.2603C95.9561 25.7323 95.9072 26.2368 95.9072 26.7739ZM115.377 30.3384V20.292H118.893V33.5H115.584L115.377 30.3384ZM115.768 27.6284L116.805 27.604C116.805 28.4829 116.703 29.3008 116.5 30.0576C116.297 30.8063 115.991 31.4574 115.584 32.0107C115.178 32.556 114.665 32.9832 114.046 33.2925C113.428 33.5936 112.7 33.7441 111.861 33.7441C111.218 33.7441 110.624 33.6546 110.079 33.4756C109.542 33.2884 109.078 32.9995 108.688 32.6089C108.305 32.2101 108.004 31.7015 107.784 31.083C107.573 30.4564 107.467 29.7036 107.467 28.8247V20.292H110.982V28.8491C110.982 29.2397 111.027 29.5693 111.117 29.8379C111.214 30.1064 111.349 30.3262 111.52 30.4971C111.69 30.668 111.89 30.79 112.118 30.8633C112.354 30.9365 112.614 30.9731 112.899 30.9731C113.623 30.9731 114.193 30.8267 114.608 30.5337C115.031 30.2407 115.328 29.842 115.499 29.3374C115.678 28.8247 115.768 28.255 115.768 27.6284ZM125.521 23.1118V33.5H122.005V20.292H125.301L125.521 23.1118ZM125.008 26.4321H124.056C124.056 25.4556 124.182 24.5767 124.434 23.7954C124.686 23.006 125.04 22.3346 125.496 21.7812C125.952 21.2197 126.493 20.7925 127.12 20.4995C127.754 20.1984 128.462 20.0479 129.244 20.0479C129.862 20.0479 130.428 20.1374 130.94 20.3164C131.453 20.4954 131.893 20.7803 132.259 21.1709C132.633 21.5615 132.918 22.0783 133.113 22.7212C133.317 23.3641 133.418 24.1494 133.418 25.0771V33.5H129.878V25.0649C129.878 24.479 129.797 24.0233 129.634 23.6978C129.472 23.3722 129.231 23.1444 128.914 23.0142C128.605 22.8758 128.222 22.8066 127.767 22.8066C127.295 22.8066 126.884 22.9002 126.534 23.0874C126.192 23.2746 125.907 23.535 125.679 23.8687C125.459 24.1942 125.293 24.5767 125.179 25.0161C125.065 25.4556 125.008 25.9276 125.008 26.4321ZM144.392 30.6191V14.75H147.932V33.5H144.746L144.392 30.6191ZM136.042 27.0547V26.7983C136.042 25.7892 136.156 24.8737 136.384 24.0518C136.612 23.2217 136.946 22.5096 137.385 21.9155C137.825 21.3215 138.366 20.8617 139.009 20.5361C139.652 20.2106 140.384 20.0479 141.206 20.0479C141.979 20.0479 142.655 20.2106 143.232 20.5361C143.818 20.8617 144.315 21.3255 144.722 21.9277C145.137 22.5218 145.47 23.2257 145.723 24.0396C145.975 24.8452 146.158 25.7282 146.272 26.6885V27.25C146.158 28.1696 145.975 29.0241 145.723 29.8135C145.47 30.6029 145.137 31.2946 144.722 31.8887C144.315 32.4746 143.818 32.9303 143.232 33.2559C142.646 33.5814 141.963 33.7441 141.182 33.7441C140.36 33.7441 139.627 33.5773 138.984 33.2437C138.35 32.91 137.812 32.4421 137.373 31.8398C136.942 31.2376 136.612 30.5296 136.384 29.7158C136.156 28.902 136.042 28.015 136.042 27.0547ZM139.558 26.7983V27.0547C139.558 27.5999 139.599 28.1086 139.68 28.5806C139.77 29.0526 139.912 29.4717 140.107 29.8379C140.311 30.196 140.571 30.4767 140.889 30.6802C141.214 30.8755 141.609 30.9731 142.073 30.9731C142.675 30.9731 143.171 30.8389 143.562 30.5703C143.953 30.2936 144.25 29.9152 144.453 29.4351C144.665 28.9549 144.787 28.4015 144.819 27.7749V26.1758C144.795 25.6631 144.722 25.2033 144.6 24.7964C144.486 24.3813 144.315 24.0273 144.087 23.7344C143.867 23.4414 143.59 23.2135 143.257 23.0508C142.931 22.888 142.545 22.8066 142.097 22.8066C141.641 22.8066 141.251 22.9124 140.925 23.124C140.6 23.3275 140.335 23.6082 140.132 23.9663C139.937 24.3244 139.79 24.7476 139.692 25.2358C139.603 25.716 139.558 26.2368 139.558 26.7983ZM151.398 15.7266H158.027C159.386 15.7266 160.554 15.93 161.53 16.3369C162.515 16.7438 163.272 17.346 163.801 18.1436C164.33 18.9411 164.594 19.9217 164.594 21.0854C164.594 22.0376 164.431 22.8555 164.106 23.5391C163.789 24.2145 163.337 24.7801 162.751 25.2358C162.173 25.6834 161.494 26.0415 160.712 26.3101L159.553 26.9204H153.791L153.767 24.064H158.051C158.694 24.064 159.227 23.95 159.65 23.7222C160.074 23.4943 160.391 23.1769 160.603 22.77C160.822 22.3631 160.932 21.8911 160.932 21.354C160.932 20.7843 160.826 20.292 160.615 19.877C160.403 19.4619 160.082 19.1445 159.65 18.9248C159.219 18.7051 158.678 18.5952 158.027 18.5952H155.061V33.5H151.398V15.7266ZM161.335 33.5L157.282 25.5776L161.152 25.5532L165.253 33.3291V33.5H161.335ZM175.507 30.3384V20.292H179.022V33.5H175.714L175.507 30.3384ZM175.897 27.6284L176.935 27.604C176.935 28.4829 176.833 29.3008 176.63 30.0576C176.426 30.8063 176.121 31.4574 175.714 32.0107C175.307 32.556 174.795 32.9832 174.176 33.2925C173.558 33.5936 172.829 33.7441 171.991 33.7441C171.348 33.7441 170.754 33.6546 170.209 33.4756C169.672 33.2884 169.208 32.9995 168.817 32.6089C168.435 32.2101 168.134 31.7015 167.914 31.083C167.702 30.4564 167.597 29.7036 167.597 28.8247V20.292H171.112V28.8491C171.112 29.2397 171.157 29.5693 171.247 29.8379C171.344 30.1064 171.479 30.3262 171.649 30.4971C171.82 30.668 172.02 30.79 172.248 30.8633C172.484 30.9365 172.744 30.9731 173.029 30.9731C173.753 30.9731 174.323 30.8267 174.738 30.5337C175.161 30.2407 175.458 29.842 175.629 29.3374C175.808 28.8247 175.897 28.255 175.897 27.6284ZM189.349 29.8501C189.349 29.5978 189.276 29.37 189.129 29.1665C188.983 28.9631 188.71 28.7759 188.312 28.605C187.921 28.4259 187.355 28.2632 186.615 28.1167C185.947 27.9702 185.325 27.7871 184.747 27.5674C184.177 27.3395 183.681 27.0669 183.258 26.7495C182.843 26.4321 182.517 26.0578 182.281 25.6265C182.045 25.187 181.927 24.6865 181.927 24.125C181.927 23.5716 182.045 23.0508 182.281 22.5625C182.525 22.0742 182.871 21.6429 183.319 21.2686C183.775 20.8861 184.328 20.589 184.979 20.3774C185.638 20.1577 186.379 20.0479 187.201 20.0479C188.348 20.0479 189.333 20.231 190.155 20.5972C190.985 20.9634 191.62 21.4679 192.059 22.1108C192.507 22.7456 192.73 23.4699 192.73 24.2837H189.215C189.215 23.9419 189.142 23.6367 188.995 23.3682C188.857 23.0915 188.637 22.8758 188.336 22.7212C188.043 22.5584 187.66 22.4771 187.188 22.4771C186.798 22.4771 186.46 22.5462 186.175 22.6846C185.89 22.8148 185.671 22.9938 185.516 23.2217C185.37 23.4414 185.296 23.6855 185.296 23.9541C185.296 24.1576 185.337 24.3407 185.418 24.5034C185.508 24.658 185.65 24.8005 185.846 24.9307C186.041 25.0609 186.293 25.1829 186.603 25.2969C186.92 25.4027 187.311 25.5003 187.774 25.5898C188.727 25.7852 189.577 26.0415 190.326 26.3589C191.074 26.6681 191.668 27.0913 192.108 27.6284C192.547 28.1574 192.767 28.8532 192.767 29.7158C192.767 30.3018 192.637 30.8389 192.376 31.3271C192.116 31.8154 191.742 32.2427 191.253 32.6089C190.765 32.967 190.179 33.2477 189.496 33.4512C188.82 33.6465 188.059 33.7441 187.213 33.7441C185.984 33.7441 184.942 33.5244 184.088 33.085C183.242 32.6455 182.599 32.0881 182.159 31.4126C181.728 30.729 181.512 30.0291 181.512 29.313H184.845C184.861 29.7931 184.983 30.1797 185.211 30.4727C185.447 30.7656 185.744 30.9772 186.102 31.1074C186.468 31.2376 186.863 31.3027 187.286 31.3027C187.742 31.3027 188.12 31.2417 188.421 31.1196C188.722 30.9894 188.95 30.8185 189.105 30.6069C189.268 30.3872 189.349 30.1349 189.349 29.8501ZM202.691 29.8501C202.691 29.5978 202.618 29.37 202.471 29.1665C202.325 28.9631 202.052 28.7759 201.653 28.605C201.263 28.4259 200.697 28.2632 199.957 28.1167C199.289 27.9702 198.667 27.7871 198.089 27.5674C197.519 27.3395 197.023 27.0669 196.6 26.7495C196.185 26.4321 195.859 26.0578 195.623 25.6265C195.387 25.187 195.269 24.6865 195.269 24.125C195.269 23.5716 195.387 23.0508 195.623 22.5625C195.867 22.0742 196.213 21.6429 196.661 21.2686C197.116 20.8861 197.67 20.589 198.321 20.3774C198.98 20.1577 199.721 20.0479 200.542 20.0479C201.69 20.0479 202.675 20.231 203.497 20.5972C204.327 20.9634 204.961 21.4679 205.401 22.1108C205.848 22.7456 206.072 23.4699 206.072 24.2837H202.557C202.557 23.9419 202.483 23.6367 202.337 23.3682C202.199 23.0915 201.979 22.8758 201.678 22.7212C201.385 22.5584 201.002 22.4771 200.53 22.4771C200.14 22.4771 199.802 22.5462 199.517 22.6846C199.232 22.8148 199.013 22.9938 198.858 23.2217C198.711 23.4414 198.638 23.6855 198.638 23.9541C198.638 24.1576 198.679 24.3407 198.76 24.5034C198.85 24.658 198.992 24.8005 199.188 24.9307C199.383 25.0609 199.635 25.1829 199.944 25.2969C200.262 25.4027 200.652 25.5003 201.116 25.5898C202.068 25.7852 202.919 26.0415 203.667 26.3589C204.416 26.6681 205.01 27.0913 205.45 27.6284C205.889 28.1574 206.109 28.8532 206.109 29.7158C206.109 30.3018 205.979 30.8389 205.718 31.3271C205.458 31.8154 205.083 32.2427 204.595 32.6089C204.107 32.967 203.521 33.2477 202.837 33.4512C202.162 33.6465 201.401 33.7441 200.555 33.7441C199.326 33.7441 198.284 33.5244 197.43 33.085C196.583 32.6455 195.94 32.0881 195.501 31.4126C195.07 30.729 194.854 30.0291 194.854 29.313H198.187C198.203 29.7931 198.325 30.1797 198.553 30.4727C198.789 30.7656 199.086 30.9772 199.444 31.1074C199.81 31.2376 200.205 31.3027 200.628 31.3027C201.084 31.3027 201.462 31.2417 201.763 31.1196C202.064 30.9894 202.292 30.8185 202.447 30.6069C202.61 30.3872 202.691 30.1349 202.691 29.8501ZM212.603 20.292V33.5H209.075V20.292H212.603ZM208.855 16.8496C208.855 16.3369 209.034 15.9137 209.392 15.5801C209.75 15.2464 210.23 15.0796 210.833 15.0796C211.427 15.0796 211.903 15.2464 212.261 15.5801C212.627 15.9137 212.81 16.3369 212.81 16.8496C212.81 17.3623 212.627 17.7855 212.261 18.1191C211.903 18.4528 211.427 18.6196 210.833 18.6196C210.23 18.6196 209.75 18.4528 209.392 18.1191C209.034 17.7855 208.855 17.3623 208.855 16.8496ZM223.137 30.5215V24.6377C223.137 24.2145 223.068 23.8524 222.929 23.5513C222.791 23.242 222.575 23.002 222.282 22.8311C221.997 22.6602 221.627 22.5747 221.171 22.5747C220.781 22.5747 220.443 22.6439 220.158 22.7822C219.873 22.9124 219.654 23.1037 219.499 23.356C219.344 23.6001 219.267 23.889 219.267 24.2227H215.751C215.751 23.6611 215.882 23.1281 216.142 22.6235C216.403 22.119 216.781 21.6755 217.277 21.293C217.774 20.9023 218.364 20.5972 219.047 20.3774C219.739 20.1577 220.512 20.0479 221.367 20.0479C222.392 20.0479 223.304 20.2188 224.101 20.5605C224.899 20.9023 225.525 21.415 225.981 22.0986C226.445 22.7822 226.677 23.6367 226.677 24.6621V30.314C226.677 31.0382 226.722 31.6323 226.811 32.0962C226.901 32.5519 227.031 32.9507 227.202 33.2925V33.5H223.649C223.479 33.1419 223.348 32.6943 223.259 32.1572C223.177 31.612 223.137 31.0667 223.137 30.5215ZM223.601 25.4556L223.625 27.4453H221.66C221.196 27.4453 220.793 27.4982 220.451 27.604C220.109 27.7098 219.829 27.8604 219.609 28.0557C219.389 28.2428 219.226 28.4626 219.121 28.7148C219.023 28.9671 218.974 29.2438 218.974 29.5449C218.974 29.846 219.043 30.1187 219.182 30.3628C219.32 30.5988 219.519 30.786 219.78 30.9243C220.04 31.0545 220.345 31.1196 220.695 31.1196C221.224 31.1196 221.684 31.0138 222.075 30.8022C222.465 30.5907 222.766 30.3302 222.978 30.021C223.198 29.7118 223.312 29.4188 223.32 29.1421L224.248 30.6313C224.117 30.965 223.938 31.3109 223.71 31.6689C223.491 32.027 223.21 32.3647 222.868 32.6821C222.526 32.9914 222.115 33.2477 221.635 33.4512C221.155 33.6465 220.585 33.7441 219.926 33.7441C219.088 33.7441 218.327 33.5773 217.644 33.2437C216.968 32.9019 216.431 32.4339 216.032 31.8398C215.642 31.2376 215.446 30.554 215.446 29.7891C215.446 29.0973 215.576 28.4829 215.837 27.9458C216.097 27.4087 216.48 26.957 216.984 26.5908C217.497 26.2165 218.136 25.9357 218.901 25.7485C219.666 25.5532 220.553 25.4556 221.562 25.4556H223.601Z" fill="#132529"/>
</svg>
