<svg width="222" height="50" viewBox="0 0 222 50" fill="none" xmlns="http://www.w3.org/2000/svg">
<path d="M18.728 10.5947L13.418 26H10.2075L16.897 8.22656H18.9478L18.728 10.5947ZM23.1714 26L17.8491 10.5947L17.6172 8.22656H19.6802L26.394 26H23.1714ZM22.915 19.4082V21.8374H13.2471V19.4082H22.915Z" fill="#EBA534"/>
<path d="M26.8066 22.2266H33.0933C34.4442 22.2266 35.5957 22.43 36.5479 22.8369C37.5 23.2438 38.2284 23.846 38.7329 24.6436C39.2456 25.4329 39.502 26.4095 39.502 27.5732C39.502 28.4603 39.3392 29.2415 39.0137 29.917C38.6882 30.5924 38.2284 31.1621 37.6343 31.626C37.0402 32.0817 36.3322 32.4357 35.5103 32.688L34.5825 33.1396H28.9307L28.9062 30.7104H33.1421C33.8745 30.7104 34.4849 30.5802 34.9731 30.3198C35.4614 30.0594 35.8276 29.7054 36.0718 29.2578C36.3241 28.8021 36.4502 28.2894 36.4502 27.7197C36.4502 27.1012 36.3281 26.5641 36.084 26.1084C35.848 25.6445 35.4818 25.2905 34.9854 25.0464C34.4889 24.7941 33.8582 24.668 33.0933 24.668H29.8706V40H26.8066V22.2266ZM36.9507 40L32.7759 32.0166L35.9863 32.0044L40.2222 39.8413V40H36.9507Z" fill="#EBA534"/>
<rect x="1.5" y="1.5" width="47" height="47" rx="8.5" stroke="#EBA534" stroke-width="3"/>
<path d="M73.728 18.0947L68.418 33.5H65.2075L71.897 15.7266H73.9478L73.728 18.0947ZM78.1714 33.5L72.8491 18.0947L72.6172 15.7266H74.6802L81.394 33.5H78.1714ZM77.915 26.9082V29.3374H68.2471V26.9082H77.915ZM148.008 15.7266H154.294C155.645 15.7266 156.797 15.93 157.749 16.3369C158.701 16.7438 159.43 17.346 159.934 18.1436C160.447 18.9329 160.703 19.9095 160.703 21.0732C160.703 21.9603 160.54 22.7415 160.215 23.417C159.889 24.0924 159.43 24.6621 158.835 25.126C158.241 25.5817 157.533 25.9357 156.711 26.188L155.784 26.6396H150.132L150.107 24.2104H154.343C155.076 24.2104 155.686 24.0802 156.174 23.8198C156.663 23.5594 157.029 23.2054 157.273 22.7578C157.525 22.3021 157.651 21.7894 157.651 21.2197C157.651 20.6012 157.529 20.0641 157.285 19.6084C157.049 19.1445 156.683 18.7905 156.187 18.5464C155.69 18.2941 155.059 18.168 154.294 18.168H151.072V33.5H148.008V15.7266ZM158.152 33.5L153.977 25.5166L157.188 25.5044L161.423 33.3413V33.5H158.152Z" fill="#EBA534"/>
<path d="M86.0449 22.8066V33.5H83.103V20.292H85.9106L86.0449 22.8066ZM90.0854 20.2065L90.061 22.9409C89.882 22.9084 89.6867 22.884 89.4751 22.8677C89.2716 22.8514 89.0682 22.8433 88.8647 22.8433C88.3602 22.8433 87.9167 22.9165 87.5342 23.063C87.1517 23.2013 86.8302 23.4048 86.5698 23.6733C86.3175 23.9338 86.1222 24.2511 85.9839 24.6255C85.8455 24.9998 85.7642 25.4189 85.7397 25.8828L85.0684 25.9316C85.0684 25.1016 85.1497 24.3325 85.3125 23.6245C85.4753 22.9165 85.7194 22.2939 86.0449 21.7568C86.3786 21.2197 86.7936 20.8006 87.29 20.4995C87.7946 20.1984 88.3765 20.0479 89.0356 20.0479C89.2147 20.0479 89.4059 20.0641 89.6094 20.0967C89.821 20.1292 89.9797 20.1659 90.0854 20.2065ZM91.0498 27.0425V26.7617C91.0498 25.8096 91.1882 24.9266 91.4648 24.1128C91.7415 23.2909 92.1403 22.5788 92.6611 21.9766C93.1901 21.3662 93.833 20.8942 94.5898 20.5605C95.3548 20.2188 96.2174 20.0479 97.1777 20.0479C98.1462 20.0479 99.0088 20.2188 99.7656 20.5605C100.531 20.8942 101.178 21.3662 101.707 21.9766C102.236 22.5788 102.638 23.2909 102.915 24.1128C103.192 24.9266 103.33 25.8096 103.33 26.7617V27.0425C103.33 27.9946 103.192 28.8776 102.915 29.6914C102.638 30.5052 102.236 31.2173 101.707 31.8276C101.178 32.4299 100.535 32.9019 99.7778 33.2437C99.021 33.5773 98.1624 33.7441 97.2021 33.7441C96.2337 33.7441 95.367 33.5773 94.6021 33.2437C93.8452 32.9019 93.2023 32.4299 92.6733 31.8276C92.1444 31.2173 91.7415 30.5052 91.4648 29.6914C91.1882 28.8776 91.0498 27.9946 91.0498 27.0425ZM93.9917 26.7617V27.0425C93.9917 27.6366 94.0527 28.1981 94.1748 28.7271C94.2969 29.256 94.4881 29.7199 94.7485 30.1187C95.009 30.5174 95.3426 30.8307 95.7495 31.0586C96.1564 31.2865 96.6406 31.4004 97.2021 31.4004C97.7474 31.4004 98.2194 31.2865 98.6182 31.0586C99.0251 30.8307 99.3587 30.5174 99.6191 30.1187C99.8796 29.7199 100.071 29.256 100.193 28.7271C100.323 28.1981 100.388 27.6366 100.388 27.0425V26.7617C100.388 26.1758 100.323 25.6224 100.193 25.1016C100.071 24.5726 99.8755 24.1047 99.6069 23.6978C99.3465 23.2909 99.0129 22.9735 98.606 22.7456C98.2072 22.5096 97.7311 22.3916 97.1777 22.3916C96.6243 22.3916 96.1442 22.5096 95.7373 22.7456C95.3385 22.9735 95.009 23.2909 94.7485 23.6978C94.4881 24.1047 94.2969 24.5726 94.1748 25.1016C94.0527 25.6224 93.9917 26.1758 93.9917 26.7617ZM113.743 30.3872V20.292H116.697V33.5H113.914L113.743 30.3872ZM114.158 27.6406L115.146 27.6162C115.146 28.5033 115.049 29.3211 114.854 30.0698C114.658 30.8104 114.357 31.4574 113.95 32.0107C113.543 32.556 113.022 32.9832 112.388 33.2925C111.753 33.5936 110.992 33.7441 110.105 33.7441C109.462 33.7441 108.872 33.6506 108.335 33.4634C107.798 33.2762 107.334 32.9873 106.943 32.5967C106.561 32.2061 106.264 31.6974 106.052 31.0708C105.841 30.4442 105.735 29.6955 105.735 28.8247V20.292H108.677V28.8491C108.677 29.3293 108.734 29.7321 108.848 30.0576C108.962 30.375 109.116 30.6313 109.312 30.8267C109.507 31.022 109.735 31.1603 109.995 31.2417C110.256 31.3231 110.532 31.3638 110.825 31.3638C111.663 31.3638 112.323 31.201 112.803 30.8755C113.291 30.5418 113.637 30.0942 113.84 29.5327C114.052 28.9712 114.158 28.3405 114.158 27.6406ZM122.629 23.1118V33.5H119.688V20.292H122.458L122.629 23.1118ZM122.104 26.4077L121.152 26.3955C121.16 25.4596 121.291 24.6011 121.543 23.8198C121.803 23.0386 122.161 22.3672 122.617 21.8057C123.081 21.2441 123.634 20.8128 124.277 20.5117C124.92 20.2025 125.636 20.0479 126.426 20.0479C127.061 20.0479 127.634 20.1374 128.147 20.3164C128.668 20.4873 129.111 20.7681 129.478 21.1587C129.852 21.5493 130.137 22.0579 130.332 22.6846C130.527 23.3031 130.625 24.064 130.625 24.9673V33.5H127.671V24.9551C127.671 24.3203 127.577 23.8198 127.39 23.4536C127.211 23.0793 126.947 22.8148 126.597 22.6602C126.255 22.4974 125.828 22.416 125.315 22.416C124.81 22.416 124.359 22.5218 123.96 22.7334C123.561 22.945 123.223 23.2339 122.947 23.6001C122.678 23.9663 122.471 24.3895 122.324 24.8696C122.178 25.3498 122.104 25.8625 122.104 26.4077ZM141.685 30.7656V14.75H144.639V33.5H141.965L141.685 30.7656ZM133.091 27.0425V26.7861C133.091 25.7852 133.209 24.8737 133.445 24.0518C133.681 23.2217 134.023 22.5096 134.47 21.9155C134.918 21.3133 135.463 20.8535 136.106 20.5361C136.749 20.2106 137.473 20.0479 138.279 20.0479C139.076 20.0479 139.776 20.2025 140.378 20.5117C140.981 20.821 141.493 21.2645 141.917 21.8423C142.34 22.4119 142.677 23.0955 142.93 23.8931C143.182 24.6825 143.361 25.5614 143.467 26.5298V27.3477C143.361 28.2917 143.182 29.1543 142.93 29.9355C142.677 30.7168 142.34 31.3923 141.917 31.9619C141.493 32.5316 140.977 32.971 140.366 33.2803C139.764 33.5895 139.06 33.7441 138.254 33.7441C137.457 33.7441 136.737 33.5773 136.094 33.2437C135.459 32.91 134.918 32.4421 134.47 31.8398C134.023 31.2376 133.681 30.5296 133.445 29.7158C133.209 28.8939 133.091 28.0028 133.091 27.0425ZM136.033 26.7861V27.0425C136.033 27.6447 136.086 28.2062 136.191 28.7271C136.305 29.2479 136.48 29.7077 136.716 30.1064C136.952 30.4971 137.257 30.8063 137.632 31.0342C138.014 31.2539 138.47 31.3638 138.999 31.3638C139.666 31.3638 140.216 31.2173 140.647 30.9243C141.078 30.6313 141.416 30.2367 141.66 29.7402C141.912 29.2357 142.083 28.6742 142.173 28.0557V25.8462C142.124 25.366 142.022 24.9185 141.868 24.5034C141.721 24.0884 141.522 23.7262 141.27 23.417C141.017 23.0996 140.704 22.8555 140.33 22.6846C139.963 22.5055 139.528 22.416 139.023 22.416C138.486 22.416 138.031 22.5299 137.656 22.7578C137.282 22.9857 136.973 23.299 136.729 23.6978C136.493 24.0965 136.318 24.5604 136.204 25.0894C136.09 25.6183 136.033 26.1839 136.033 26.7861ZM171.409 30.3872V20.292H174.363V33.5H171.58L171.409 30.3872ZM171.824 27.6406L172.812 27.6162C172.812 28.5033 172.715 29.3211 172.52 30.0698C172.324 30.8104 172.023 31.4574 171.616 32.0107C171.209 32.556 170.688 32.9832 170.054 33.2925C169.419 33.5936 168.658 33.7441 167.771 33.7441C167.128 33.7441 166.538 33.6506 166.001 33.4634C165.464 33.2762 165 32.9873 164.609 32.5967C164.227 32.2061 163.93 31.6974 163.718 31.0708C163.507 30.4442 163.401 29.6955 163.401 28.8247V20.292H166.343V28.8491C166.343 29.3293 166.4 29.7321 166.514 30.0576C166.628 30.375 166.782 30.6313 166.978 30.8267C167.173 31.022 167.401 31.1603 167.661 31.2417C167.922 31.3231 168.198 31.3638 168.491 31.3638C169.329 31.3638 169.989 31.201 170.469 30.8755C170.957 30.5418 171.303 30.0942 171.506 29.5327C171.718 28.9712 171.824 28.3405 171.824 27.6406ZM184.788 29.9233C184.788 29.6304 184.714 29.3659 184.568 29.1299C184.421 28.8857 184.141 28.666 183.726 28.4707C183.319 28.2754 182.716 28.0964 181.919 27.9336C181.219 27.779 180.576 27.5959 179.99 27.3843C179.412 27.1646 178.916 26.9001 178.501 26.5908C178.086 26.2816 177.764 25.9154 177.537 25.4922C177.309 25.069 177.195 24.5807 177.195 24.0273C177.195 23.4902 177.313 22.9816 177.549 22.5015C177.785 22.0213 178.123 21.5981 178.562 21.2319C179.001 20.8657 179.535 20.5768 180.161 20.3652C180.796 20.1536 181.504 20.0479 182.285 20.0479C183.392 20.0479 184.34 20.235 185.129 20.6094C185.927 20.9756 186.537 21.4761 186.96 22.1108C187.384 22.7375 187.595 23.4455 187.595 24.2349H184.653C184.653 23.8849 184.564 23.5594 184.385 23.2583C184.214 22.9491 183.953 22.7008 183.604 22.5137C183.254 22.3184 182.814 22.2207 182.285 22.2207C181.781 22.2207 181.361 22.3021 181.028 22.4648C180.702 22.6195 180.458 22.8229 180.295 23.0752C180.141 23.3275 180.063 23.6042 180.063 23.9053C180.063 24.125 180.104 24.3244 180.186 24.5034C180.275 24.6743 180.422 24.833 180.625 24.9795C180.828 25.1178 181.105 25.248 181.455 25.3701C181.813 25.4922 182.261 25.6102 182.798 25.7241C183.807 25.9357 184.674 26.2083 185.398 26.542C186.13 26.8675 186.692 27.2907 187.083 27.8115C187.473 28.3242 187.668 28.9753 187.668 29.7646C187.668 30.3506 187.542 30.8877 187.29 31.376C187.046 31.8561 186.688 32.2752 186.216 32.6333C185.744 32.9832 185.178 33.2559 184.519 33.4512C183.868 33.6465 183.136 33.7441 182.322 33.7441C181.125 33.7441 180.112 33.5326 179.282 33.1094C178.452 32.6781 177.821 32.1287 177.39 31.4614C176.967 30.786 176.755 30.0861 176.755 29.3618H179.6C179.632 29.9071 179.783 30.3424 180.051 30.668C180.328 30.9854 180.67 31.2173 181.077 31.3638C181.492 31.5021 181.919 31.5713 182.358 31.5713C182.887 31.5713 183.331 31.5021 183.689 31.3638C184.047 31.2173 184.32 31.022 184.507 30.7778C184.694 30.5256 184.788 30.2407 184.788 29.9233ZM197.654 29.9233C197.654 29.6304 197.581 29.3659 197.434 29.1299C197.288 28.8857 197.007 28.666 196.592 28.4707C196.185 28.2754 195.583 28.0964 194.785 27.9336C194.085 27.779 193.442 27.5959 192.856 27.3843C192.279 27.1646 191.782 26.9001 191.367 26.5908C190.952 26.2816 190.631 25.9154 190.403 25.4922C190.175 25.069 190.061 24.5807 190.061 24.0273C190.061 23.4902 190.179 22.9816 190.415 22.5015C190.651 22.0213 190.989 21.5981 191.428 21.2319C191.868 20.8657 192.401 20.5768 193.027 20.3652C193.662 20.1536 194.37 20.0479 195.151 20.0479C196.258 20.0479 197.206 20.235 197.996 20.6094C198.793 20.9756 199.403 21.4761 199.827 22.1108C200.25 22.7375 200.461 23.4455 200.461 24.2349H197.52C197.52 23.8849 197.43 23.5594 197.251 23.2583C197.08 22.9491 196.82 22.7008 196.47 22.5137C196.12 22.3184 195.68 22.2207 195.151 22.2207C194.647 22.2207 194.228 22.3021 193.894 22.4648C193.569 22.6195 193.324 22.8229 193.162 23.0752C193.007 23.3275 192.93 23.6042 192.93 23.9053C192.93 24.125 192.97 24.3244 193.052 24.5034C193.141 24.6743 193.288 24.833 193.491 24.9795C193.695 25.1178 193.971 25.248 194.321 25.3701C194.679 25.4922 195.127 25.6102 195.664 25.7241C196.673 25.9357 197.54 26.2083 198.264 26.542C198.997 26.8675 199.558 27.2907 199.949 27.8115C200.339 28.3242 200.535 28.9753 200.535 29.7646C200.535 30.3506 200.409 30.8877 200.156 31.376C199.912 31.8561 199.554 32.2752 199.082 32.6333C198.61 32.9832 198.044 33.2559 197.385 33.4512C196.734 33.6465 196.002 33.7441 195.188 33.7441C193.992 33.7441 192.979 33.5326 192.148 33.1094C191.318 32.6781 190.688 32.1287 190.256 31.4614C189.833 30.786 189.622 30.0861 189.622 29.3618H192.466C192.498 29.9071 192.649 30.3424 192.917 30.668C193.194 30.9854 193.536 31.2173 193.943 31.3638C194.358 31.5021 194.785 31.5713 195.225 31.5713C195.754 31.5713 196.197 31.5021 196.555 31.3638C196.913 31.2173 197.186 31.022 197.373 30.7778C197.56 30.5256 197.654 30.2407 197.654 29.9233ZM206.26 20.292V33.5H203.306V20.292H206.26ZM203.11 16.8252C203.11 16.3776 203.257 16.0073 203.55 15.7144C203.851 15.4132 204.266 15.2627 204.795 15.2627C205.316 15.2627 205.727 15.4132 206.028 15.7144C206.329 16.0073 206.479 16.3776 206.479 16.8252C206.479 17.2646 206.329 17.6309 206.028 17.9238C205.727 18.2168 205.316 18.3633 204.795 18.3633C204.266 18.3633 203.851 18.2168 203.55 17.9238C203.257 17.6309 203.11 17.2646 203.11 16.8252ZM216.929 30.8511V24.5522C216.929 24.0802 216.843 23.6733 216.672 23.3315C216.501 22.9897 216.241 22.7253 215.891 22.5381C215.549 22.3509 215.118 22.2573 214.597 22.2573C214.117 22.2573 213.702 22.3387 213.352 22.5015C213.002 22.6642 212.729 22.884 212.534 23.1606C212.339 23.4373 212.241 23.7507 212.241 24.1006H209.312C209.312 23.5798 209.438 23.0752 209.69 22.5869C209.942 22.0986 210.308 21.6632 210.789 21.2808C211.269 20.8983 211.842 20.5972 212.51 20.3774C213.177 20.1577 213.926 20.0479 214.756 20.0479C215.749 20.0479 216.628 20.2147 217.393 20.5483C218.166 20.882 218.772 21.3866 219.211 22.062C219.659 22.7293 219.883 23.5675 219.883 24.5767V30.4482C219.883 31.0505 219.924 31.5916 220.005 32.0718C220.094 32.5438 220.221 32.9548 220.383 33.3047V33.5H217.368C217.23 33.1826 217.12 32.7798 217.039 32.2915C216.965 31.7951 216.929 31.3149 216.929 30.8511ZM217.356 25.4678L217.38 27.2866H215.269C214.723 27.2866 214.243 27.3395 213.828 27.4453C213.413 27.543 213.067 27.6895 212.791 27.8848C212.514 28.0801 212.306 28.3161 212.168 28.5928C212.03 28.8695 211.96 29.1828 211.96 29.5327C211.96 29.8826 212.042 30.2041 212.205 30.4971C212.367 30.7819 212.603 31.0057 212.913 31.1685C213.23 31.3312 213.612 31.4126 214.06 31.4126C214.662 31.4126 215.187 31.2905 215.635 31.0464C216.09 30.7941 216.449 30.4889 216.709 30.1309C216.969 29.7646 217.108 29.4188 217.124 29.0933L218.076 30.3994C217.979 30.7331 217.812 31.0911 217.576 31.4736C217.34 31.8561 217.03 32.2223 216.648 32.5723C216.274 32.9141 215.822 33.1948 215.293 33.4146C214.772 33.6343 214.17 33.7441 213.486 33.7441C212.624 33.7441 211.855 33.5732 211.179 33.2314C210.504 32.8815 209.975 32.4136 209.592 31.8276C209.21 31.2336 209.019 30.5622 209.019 29.8135C209.019 29.1136 209.149 28.4951 209.409 27.958C209.678 27.4128 210.068 26.957 210.581 26.5908C211.102 26.2246 211.737 25.9479 212.485 25.7607C213.234 25.5654 214.089 25.4678 215.049 25.4678H217.356Z" fill="#132529"/>
</svg>
