<svg width="15" height="15" viewBox="0 0 15 15" fill="none" xmlns="http://www.w3.org/2000/svg">
<path d="M0.681818 8.18004C0.500989 8.18004 0.327566 8.10821 0.1997 7.98034C0.0718343 7.85248 0 7.67905 0 7.49822C0 7.31739 0.0718343 7.14397 0.1997 7.01611C0.327566 6.88824 0.500989 6.81641 0.681818 6.81641H14.3182C14.499 6.81641 14.6724 6.88824 14.8003 7.01611C14.9282 7.14397 15 7.31739 15 7.49822C15 7.67905 14.9282 7.85248 14.8003 7.98034C14.6724 8.10821 14.499 8.18004 14.3182 8.18004H0.681818Z" fill="#132529"/>
<path d="M6.81641 0.681818C6.81641 0.500989 6.88824 0.327566 7.01611 0.1997C7.14397 0.0718343 7.31739 0 7.49822 0C7.67905 0 7.85248 0.0718343 7.98034 0.1997C8.10821 0.327566 8.18004 0.500989 8.18004 0.681818V14.3182C8.18004 14.499 8.10821 14.6724 7.98034 14.8003C7.85248 14.9282 7.67905 15 7.49822 15C7.31739 15 7.14397 14.9282 7.01611 14.8003C6.88824 14.6724 6.81641 14.499 6.81641 14.3182V0.681818Z" fill="#132529"/>
</svg>
