<svg width="250" height="80" viewBox="0 0 250 80" fill="none" xmlns="http://www.w3.org/2000/svg">
<path fill-rule="evenodd" clip-rule="evenodd" d="M0 5C0 2.23858 2.23857 0 5 0H245C247.761 0 250 2.23858 250 5V15.0011C250 17.7621 247.695 19.9233 245.104 20.8778C238.29 23.3885 233.336 31 233.336 40C233.336 49 238.29 56.6115 245.104 59.1222C247.695 60.0767 250 62.2379 250 64.9989V75C250 77.7614 247.761 80 245 80H5C2.23858 80 0 77.7614 0 75V60.0031C0 60.0014 0.00138852 60 0.00310135 60C9.20785 60 16.6698 51.0457 16.6698 40C16.6698 28.9543 9.20785 20 0.00310135 20C0.00138852 20 0 19.9986 0 19.9969V5Z" fill="#ECF1F1"/>
</svg>
